# Blender 4.1.0
# www.blender.org
mtllib Arm2.mtl
o Arm2
v -0.096820 3.363703 -0.743567
v -0.096820 3.363703 0.755184
v 0.783771 3.755766 -0.693573
v 0.737078 3.734978 -0.743567
v 0.548173 4.080040 -0.693573
v 0.513973 4.042056 -0.743567
v 0.201050 4.280453 -0.693573
v 0.185256 4.231843 -0.743567
v -0.197578 4.322349 -0.693573
v -0.192235 4.271517 -0.743567
v -0.578784 4.198490 -0.693573
v -0.553228 4.154225 -0.743567
v -0.876653 3.930285 -0.693573
v -0.835303 3.900241 -0.743567
v -1.039682 3.564114 -0.693573
v -0.989688 3.553487 -0.743567
v -1.039682 3.163291 -0.693573
v -0.989688 3.173917 -0.743567
v -0.876654 2.797120 -0.693573
v -0.835304 2.827163 -0.743567
v -0.578784 2.528917 -0.693573
v -0.553228 2.573181 -0.743567
v -0.197578 2.405056 -0.693573
v -0.192235 2.455888 -0.743567
v 0.201050 2.446953 -0.693573
v 0.185255 2.495564 -0.743567
v 0.548173 2.647365 -0.693573
v 0.513973 2.685349 -0.743567
v 0.783771 2.971638 -0.693573
v 0.737078 2.992427 -0.743567
v 0.867107 3.363703 -0.693573
v 0.815995 3.363703 -0.743567
v 0.783771 3.755767 0.705189
v 0.737078 3.734978 0.755184
v 0.548173 4.080040 0.705189
v 0.513973 4.042056 0.755184
v 0.201050 4.280453 0.705189
v 0.185256 4.231843 0.755184
v -0.197578 4.322349 0.705189
v -0.192235 4.271517 0.755184
v -0.578784 4.198490 0.705189
v -0.553228 4.154225 0.755184
v -0.876653 3.930285 0.705189
v -0.835303 3.900242 0.755184
v -1.039682 3.564114 0.705189
v -0.989688 3.553488 0.755184
v -1.039682 3.163292 0.705189
v -0.989688 3.173918 0.755184
v -0.876654 2.797120 0.705189
v -0.835304 2.827163 0.755184
v -0.578784 2.528918 0.705188
v -0.553228 2.573181 0.755184
v -0.197578 2.405057 0.705189
v -0.192235 2.455889 0.755184
v 0.201050 2.446954 0.705189
v 0.185255 2.495564 0.755184
v 0.548173 2.647365 0.705189
v 0.513973 2.685349 0.755184
v 0.783771 2.971638 0.705189
v 0.737078 2.992428 0.755184
v 0.867107 3.363703 0.705189
v 0.815995 3.363703 0.755184
v -0.000001 -0.000003 -1.351379
v -0.000001 -0.000002 1.362995
v 0.380382 0.658840 -1.249766
v 0.347632 0.602115 -1.351379
v -0.380385 0.658840 -1.249766
v -0.347635 0.602115 -1.351379
v -0.760768 -0.000003 -1.249766
v -0.695269 -0.000003 -1.351379
v -0.380385 -0.658846 -1.249766
v -0.347635 -0.602122 -1.351379
v 0.380382 -0.658846 -1.249766
v 0.347632 -0.602122 -1.351379
v 0.760765 -0.000003 -1.249766
v 0.695266 -0.000003 -1.351379
v 0.380382 0.658840 1.261382
v 0.347632 0.602115 1.362995
v -0.380385 0.658840 1.261382
v -0.347635 0.602115 1.362995
v -0.760768 -0.000002 1.261382
v -0.695269 -0.000002 1.362995
v -0.380385 -0.658845 1.261382
v -0.347635 -0.602122 1.362995
v 0.380382 -0.658845 1.261382
v 0.347632 -0.602122 1.362995
v 0.760765 -0.000002 1.261382
v 0.695266 -0.000002 1.362995
v 0.300174 0.607081 -0.562395
v -0.355931 0.607081 -0.562395
v -0.683983 0.607081 0.005808
v -0.355931 0.607081 0.574011
v 0.300173 0.607081 0.574011
v 0.628226 0.607081 0.005808
v 0.300174 2.982010 -0.562395
v -0.355931 2.982010 -0.562395
v -0.683983 2.982011 0.005808
v -0.355931 2.982011 0.574011
v 0.300173 2.982011 0.574011
v 0.628226 2.982011 0.005808
v -0.027879 0.607081 0.005808
v -0.027879 2.982011 0.005808
vn 0.6388 0.2844 -0.7149
vn 0.6388 0.2845 -0.7149
vn 0.4679 0.5196 -0.7149
vn 0.6993 -0.0000 -0.7149
vn 0.4679 0.5197 -0.7149
vn 0.2161 0.6650 -0.7149
vn 0.2160 0.6650 -0.7149
vn -0.0731 0.6954 -0.7149
vn -0.3496 0.6056 -0.7149
vn -0.3497 0.6056 -0.7149
vn -0.3497 0.6055 -0.7149
vn -0.5657 0.4110 -0.7149
vn -0.6840 0.1454 -0.7149
vn -0.6840 0.1453 -0.7149
vn -0.6840 -0.1453 -0.7149
vn -0.6840 -0.1454 -0.7149
vn -0.5657 -0.4110 -0.7149
vn -0.3497 -0.6055 -0.7149
vn -0.3497 -0.6056 -0.7149
vn -0.3496 -0.6056 -0.7149
vn -0.0731 -0.6954 -0.7149
vn -0.0730 -0.6954 -0.7149
vn 0.2160 -0.6650 -0.7149
vn 0.2161 -0.6650 -0.7149
vn 0.4679 -0.5197 -0.7149
vn 0.4679 -0.5196 -0.7149
vn 0.6388 -0.2845 -0.7149
vn 0.6388 -0.2844 -0.7149
vn 0.6388 0.2844 0.7149
vn 0.6993 -0.0000 0.7149
vn 0.6388 0.2845 0.7149
vn 0.4679 0.5196 0.7149
vn 0.4679 0.5197 0.7149
vn 0.2161 0.6650 0.7149
vn 0.2160 0.6650 0.7149
vn -0.0731 0.6954 0.7149
vn -0.3496 0.6056 0.7149
vn -0.3497 0.6056 0.7149
vn -0.3497 0.6055 0.7149
vn -0.5657 0.4110 0.7149
vn -0.6840 0.1454 0.7149
vn -0.6840 0.1453 0.7149
vn -0.6840 -0.1453 0.7149
vn -0.6840 -0.1454 0.7149
vn -0.5657 -0.4110 0.7149
vn -0.5657 -0.4111 0.7149
vn -0.3497 -0.6056 0.7149
vn -0.3497 -0.6055 0.7149
vn -0.3496 -0.6056 0.7149
vn -0.0731 -0.6954 0.7149
vn -0.0730 -0.6954 0.7149
vn 0.2160 -0.6650 0.7149
vn 0.2161 -0.6650 0.7149
vn 0.4679 -0.5197 0.7149
vn 0.4679 -0.5196 0.7149
vn 0.6388 -0.2845 0.7149
vn 0.6388 -0.2844 0.7149
vn 0.6992 -0.0000 0.7149
vn 0.9135 0.4068 -0.0000
vn 0.6692 0.7431 -0.0000
vn 0.6691 0.7432 -0.0000
vn 0.3091 0.9510 -0.0000
vn 0.3090 0.9511 -0.0000
vn -0.1045 0.9945 -0.0000
vn -0.1046 0.9945 -0.0000
vn -0.5000 0.8661 -0.0000
vn -0.5000 0.8661 -0.0001
vn -0.5000 0.8660 -0.0000
vn -0.8090 0.5878 -0.0000
vn -0.8090 0.5877 -0.0000
vn -0.9781 0.2080 -0.0000
vn -0.9782 0.2079 -0.0000
vn -0.9782 -0.2079 -0.0000
vn -0.9781 -0.2080 -0.0000
vn -0.8090 -0.5877 -0.0000
vn -0.8090 -0.5878 -0.0000
vn -0.5000 -0.8660 -0.0000
vn -0.5000 -0.8660 0.0001
vn -0.1046 -0.9945 -0.0000
vn -0.1045 -0.9945 -0.0000
vn 0.3090 -0.9511 -0.0000
vn 0.3090 -0.9511 -0.0001
vn 0.3091 -0.9510 -0.0000
vn 0.6691 -0.7432 -0.0000
vn 0.6692 -0.7431 -0.0000
vn 0.9135 -0.4068 -0.0000
vn 0.9136 -0.4067 -0.0000
vn 1.0000 -0.0000 -0.0000
vn 0.9136 0.4067 -0.0000
vn -0.0000 -0.0000 -1.0000
vn -0.0000 -0.0000 1.0000
vn -0.0000 0.8732 -0.4874
vn 0.7562 0.4366 -0.4874
vn -0.7562 0.4366 -0.4874
vn -0.7562 -0.4366 -0.4874
vn -0.0000 -0.8732 -0.4874
vn 0.7562 -0.4366 -0.4874
vn 0.7562 0.4366 0.4874
vn -0.0000 0.8732 0.4874
vn -0.7562 0.4366 0.4874
vn -0.7562 -0.4366 0.4874
vn -0.0000 -0.8732 0.4874
vn 0.7562 -0.4366 0.4874
vn -0.0000 1.0000 -0.0000
vn -0.8660 0.5000 -0.0000
vn -0.8660 -0.5000 -0.0000
vn -0.0000 -1.0000 -0.0000
vn 0.8660 -0.5000 -0.0000
vn 0.8660 0.5000 -0.0000
vn -0.8660 -0.0000 -0.5000
vn -0.8660 -0.0000 0.5000
vn 0.8660 -0.0000 0.5000
vn 0.8660 -0.0000 -0.5000
vt 0.375000 0.325040
vt 0.375442 0.312500
vt 0.391225 0.312500
vt 0.391667 0.325040
vt 0.624558 0.312500
vt 0.625000 0.325040
vt 0.608333 0.325040
vt 0.608775 0.312500
vt 0.392109 0.312500
vt 0.407892 0.312500
vt 0.408333 0.325040
vt 0.408775 0.312500
vt 0.424558 0.312500
vt 0.425000 0.325040
vt 0.425442 0.312500
vt 0.441225 0.312500
vt 0.441667 0.325040
vt 0.442109 0.312500
vt 0.457892 0.312500
vt 0.458333 0.325040
vt 0.458775 0.312500
vt 0.474558 0.312500
vt 0.475000 0.325040
vt 0.475442 0.312500
vt 0.491225 0.312500
vt 0.491667 0.325041
vt 0.492109 0.312500
vt 0.507892 0.312500
vt 0.508333 0.325040
vt 0.508775 0.312500
vt 0.524558 0.312500
vt 0.525000 0.325041
vt 0.525442 0.312500
vt 0.541225 0.312500
vt 0.541667 0.325040
vt 0.542109 0.312500
vt 0.557891 0.312500
vt 0.558333 0.325040
vt 0.558775 0.312500
vt 0.574558 0.312500
vt 0.575000 0.325040
vt 0.575442 0.312500
vt 0.591225 0.312500
vt 0.591667 0.325040
vt 0.592109 0.312500
vt 0.607891 0.312500
vt 0.625000 0.675899
vt 0.624558 0.688440
vt 0.608775 0.688440
vt 0.608333 0.675899
vt 0.375442 0.688440
vt 0.375000 0.675899
vt 0.391667 0.675899
vt 0.391225 0.688440
vt 0.392109 0.688440
vt 0.408333 0.675899
vt 0.407891 0.688440
vt 0.408775 0.688440
vt 0.425000 0.675899
vt 0.424558 0.688440
vt 0.425442 0.688440
vt 0.441667 0.675899
vt 0.441225 0.688440
vt 0.442109 0.688440
vt 0.458333 0.675899
vt 0.457892 0.688440
vt 0.458775 0.688440
vt 0.475000 0.675899
vt 0.474558 0.688440
vt 0.475442 0.688440
vt 0.491667 0.675899
vt 0.491225 0.688440
vt 0.492109 0.688440
vt 0.508333 0.675899
vt 0.507892 0.688440
vt 0.508775 0.688440
vt 0.525000 0.675899
vt 0.524558 0.688440
vt 0.525442 0.688440
vt 0.541667 0.675899
vt 0.541225 0.688440
vt 0.542109 0.688440
vt 0.558333 0.675899
vt 0.557891 0.688440
vt 0.558775 0.688440
vt 0.575000 0.675899
vt 0.574558 0.688440
vt 0.575442 0.688440
vt 0.591667 0.675899
vt 0.591225 0.688440
vt 0.592109 0.688440
vt 0.607891 0.688440
vt 0.599008 0.045959
vt 0.635173 0.095736
vt 0.500000 0.150000
vt 0.545724 0.015196
vt 0.484533 0.008765
vt 0.426018 0.027777
vt 0.380294 0.068947
vt 0.355268 0.125155
vt 0.355269 0.186682
vt 0.380294 0.242890
vt 0.426017 0.284060
vt 0.484533 0.303073
vt 0.545724 0.296642
vt 0.599008 0.265878
vt 0.635173 0.216101
vt 0.647965 0.155919
vt 0.635173 0.903601
vt 0.599008 0.953378
vt 0.500000 0.837500
vt 0.545724 0.984142
vt 0.484533 0.990573
vt 0.426017 0.971560
vt 0.380294 0.930390
vt 0.355268 0.874182
vt 0.355269 0.812655
vt 0.380294 0.756447
vt 0.426018 0.715277
vt 0.484534 0.696264
vt 0.545724 0.702696
vt 0.599008 0.733459
vt 0.635173 0.783236
vt 0.647965 0.843419
vt 0.375000 0.326573
vt 0.376794 0.312500
vt 0.414873 0.312500
vt 0.416667 0.326573
vt 0.623206 0.312500
vt 0.625000 0.326573
vt 0.583333 0.326573
vt 0.585127 0.312500
vt 0.418460 0.312500
vt 0.456540 0.312500
vt 0.458333 0.326573
vt 0.460127 0.312500
vt 0.498206 0.312500
vt 0.500000 0.326573
vt 0.501794 0.312500
vt 0.539873 0.312500
vt 0.541667 0.326573
vt 0.543460 0.312500
vt 0.581540 0.312500
vt 0.625000 0.674366
vt 0.623206 0.688440
vt 0.585127 0.688440
vt 0.583333 0.674367
vt 0.376794 0.688440
vt 0.375000 0.674367
vt 0.416667 0.674367
vt 0.414873 0.688440
vt 0.418460 0.688440
vt 0.458333 0.674367
vt 0.456540 0.688440
vt 0.460127 0.688440
vt 0.500000 0.674366
vt 0.498206 0.688440
vt 0.501794 0.688440
vt 0.541667 0.674367
vt 0.539873 0.688440
vt 0.543460 0.688440
vt 0.581540 0.688440
vt 0.428601 0.032046
vt 0.571399 0.032046
vt 0.357203 0.155712
vt 0.428601 0.279378
vt 0.571399 0.279378
vt 0.642797 0.155712
vt 0.571399 0.966878
vt 0.428601 0.966878
vt 0.357203 0.843212
vt 0.428601 0.719546
vt 0.571399 0.719546
vt 0.642797 0.843212
vt 0.375000 0.312500
vt 0.416667 0.312500
vt 0.416667 0.688440
vt 0.375000 0.688440
vt 0.458333 0.312500
vt 0.458333 0.688440
vt 0.500000 0.312500
vt 0.500000 0.688440
vt 0.541667 0.312500
vt 0.541667 0.688440
vt 0.583333 0.312500
vt 0.583333 0.688440
vt 0.625000 0.312500
vt 0.625000 0.688440
vt 0.421875 0.020934
vt 0.578125 0.020934
vt 0.343750 0.156250
vt 0.421875 0.291566
vt 0.578125 0.291566
vt 0.656250 0.156250
vt 0.578125 0.979066
vt 0.421875 0.979066
vt 0.343750 0.843750
vt 0.421875 0.708434
vt 0.578125 0.708434
vt 0.656250 0.843750
s 0
usemtl initialShadingGroup
f 3/1/1 4/2/2 6/3/3 5/4/3
f 4/5/1 3/6/1 31/7/4 32/8/4
f 5/4/5 6/9/5 8/10/6 7/11/6
f 7/11/7 8/12/7 10/13/8 9/14/8
f 9/14/8 10/15/8 12/16/9 11/17/9
f 11/17/10 12/18/11 14/19/12 13/20/12
f 13/20/12 14/21/12 16/22/13 15/23/13
f 15/23/14 16/24/14 18/25/15 17/26/15
f 17/26/16 18/27/16 20/28/17 19/29/17
f 19/29/17 20/30/17 22/31/18 21/32/19
f 21/32/20 22/33/20 24/34/21 23/35/21
f 23/35/22 24/36/22 26/37/23 25/38/23
f 25/38/24 26/39/24 28/40/25 27/41/25
f 27/41/26 28/42/26 30/43/27 29/44/28
f 29/44/28 30/45/28 32/46/4 31/7/4
f 33/47/29 34/48/29 62/49/30 61/50/30
f 34/51/29 33/52/31 35/53/32 36/54/32
f 36/55/33 35/53/33 37/56/34 38/57/34
f 38/58/35 37/56/35 39/59/36 40/60/36
f 40/61/36 39/59/36 41/62/37 42/63/37
f 42/64/38 41/62/39 43/65/40 44/66/40
f 44/67/40 43/65/40 45/68/41 46/69/41
f 46/70/42 45/68/42 47/71/43 48/72/43
f 48/73/44 47/71/44 49/74/45 50/75/45
f 50/76/45 49/74/46 51/77/47 52/78/48
f 52/79/49 51/77/49 53/80/50 54/81/50
f 54/82/51 53/80/51 55/83/52 56/84/52
f 56/85/53 55/83/53 57/86/54 58/87/54
f 58/88/55 57/86/55 59/89/56 60/90/56
f 60/91/57 59/89/57 61/50/58 62/92/30
f 3/1/59 5/4/60 35/53/60 33/52/59
f 5/4/61 7/11/62 37/56/62 35/53/61
f 7/11/63 9/14/64 39/59/64 37/56/63
f 9/14/65 11/17/66 41/62/67 39/59/65
f 11/17/68 13/20/69 43/65/69 41/62/68
f 13/20/70 15/23/71 45/68/71 43/65/70
f 15/23/72 17/26/73 47/71/73 45/68/72
f 17/26/74 19/29/75 49/74/75 47/71/74
f 19/29/76 21/32/77 51/77/78 49/74/76
f 21/32/77 23/35/79 53/80/79 51/77/77
f 23/35/80 25/38/81 55/83/82 53/80/80
f 25/38/83 27/41/84 57/86/84 55/83/83
f 27/41/85 29/44/86 59/89/86 57/86/85
f 29/44/87 31/7/88 61/50/88 59/89/87
f 31/7/88 3/6/89 33/47/89 61/50/88
f 6/93/90 4/94/90 1/95/90
f 8/96/90 6/93/90 1/95/90
f 10/97/90 8/96/90 1/95/90
f 12/98/90 10/97/90 1/95/90
f 14/99/90 12/98/90 1/95/90
f 16/100/90 14/99/90 1/95/90
f 18/101/90 16/100/90 1/95/90
f 20/102/90 18/101/90 1/95/90
f 22/103/90 20/102/90 1/95/90
f 24/104/90 22/103/90 1/95/90
f 26/105/90 24/104/90 1/95/90
f 28/106/90 26/105/90 1/95/90
f 30/107/90 28/106/90 1/95/90
f 32/108/90 30/107/90 1/95/90
f 4/94/90 32/108/90 1/95/90
f 34/109/91 36/110/91 2/111/91
f 36/110/91 38/112/91 2/111/91
f 38/112/91 40/113/91 2/111/91
f 40/113/91 42/114/91 2/111/91
f 42/114/91 44/115/91 2/111/91
f 44/115/91 46/116/91 2/111/91
f 46/116/91 48/117/91 2/111/91
f 48/117/91 50/118/91 2/111/91
f 50/118/91 52/119/91 2/111/91
f 52/119/91 54/120/91 2/111/91
f 54/120/91 56/121/91 2/111/91
f 56/121/91 58/122/91 2/111/91
f 58/122/91 60/123/91 2/111/91
f 60/123/91 62/124/91 2/111/91
f 62/124/91 34/109/91 2/111/91
f 65/125/92 66/126/92 68/127/92 67/128/92
f 66/129/93 65/130/93 75/131/93 76/132/93
f 67/128/94 68/133/94 70/134/94 69/135/94
f 69/135/95 70/136/95 72/137/95 71/138/95
f 71/138/96 72/139/96 74/140/96 73/141/96
f 73/141/97 74/142/97 76/143/97 75/131/97
f 77/144/98 78/145/98 88/146/98 87/147/98
f 78/148/99 77/149/99 79/150/99 80/151/99
f 80/152/100 79/150/100 81/153/100 82/154/100
f 82/155/101 81/153/101 83/156/101 84/157/101
f 84/158/102 83/156/102 85/159/102 86/160/102
f 86/161/103 85/159/103 87/147/103 88/162/103
f 65/125/104 67/128/104 79/150/104 77/149/104
f 67/128/105 69/135/105 81/153/105 79/150/105
f 69/135/106 71/138/106 83/156/106 81/153/106
f 71/138/107 73/141/107 85/159/107 83/156/107
f 73/141/108 75/131/108 87/147/108 85/159/108
f 75/131/109 65/130/109 77/144/109 87/147/109
f 68/163/90 66/164/90 63/95/90
f 70/165/90 68/163/90 63/95/90
f 72/166/90 70/165/90 63/95/90
f 74/167/90 72/166/90 63/95/90
f 76/168/90 74/167/90 63/95/90
f 66/164/90 76/168/90 63/95/90
f 78/169/91 80/170/91 64/111/91
f 80/170/91 82/171/91 64/111/91
f 82/171/91 84/172/91 64/111/91
f 84/172/91 86/173/91 64/111/91
f 86/173/91 88/174/91 64/111/91
f 88/174/91 78/169/91 64/111/91
f 89/175/90 90/176/90 96/177/90 95/178/90
f 90/176/110 91/179/110 97/180/110 96/177/110
f 91/179/111 92/181/111 98/182/111 97/180/111
f 92/181/91 93/183/91 99/184/91 98/182/91
f 93/183/112 94/185/112 100/186/112 99/184/112
f 94/185/113 89/187/113 95/188/113 100/186/113
f 90/189/107 89/190/107 101/95/107
f 91/191/107 90/189/107 101/95/107
f 92/192/107 91/191/107 101/95/107
f 93/193/107 92/192/107 101/95/107
f 94/194/107 93/193/107 101/95/107
f 89/190/107 94/194/107 101/95/107
f 95/195/104 96/196/104 102/111/104
f 96/196/104 97/197/104 102/111/104
f 97/197/104 98/198/104 102/111/104
f 98/198/104 99/199/104 102/111/104
f 99/199/104 100/200/104 102/111/104
f 100/200/104 95/195/104 102/111/104
