# Blender 4.1.0
# www.blender.org
mtllib Arm4.mtl
o Arm4
v 0.851795 2.574777 -0.454526
v 0.851795 2.574777 0.466141
v 1.682180 2.998018 -0.404532
v 1.721960 2.908669 -0.404532
v 1.664873 2.936782 -0.454526
v 1.481538 3.274179 -0.404532
v 1.447338 3.236194 -0.454526
v 1.142622 3.469851 -0.404532
v 1.126828 3.421240 -0.454526
v 0.753419 3.510757 -0.404532
v 0.758762 3.459926 -0.454526
v 0.381226 3.389825 -0.404532
v 0.406782 3.345561 -0.454526
v 0.090399 3.127963 -0.404532
v 0.131750 3.097920 -0.454526
v -0.068776 2.770450 -0.404532
v -0.018781 2.759823 -0.454526
v -0.068776 2.379104 -0.404532
v -0.018781 2.389730 -0.454526
v 0.090399 2.021591 -0.404531
v 0.131749 2.051633 -0.454526
v 0.381226 1.759729 -0.404531
v 0.406782 1.803993 -0.454526
v 0.753419 1.638796 -0.404531
v 0.758762 1.689628 -0.454526
v 1.142622 1.679702 -0.404531
v 1.126827 1.728313 -0.454526
v 1.481538 1.875376 -0.404531
v 1.447338 1.913359 -0.454526
v 1.711566 2.191981 -0.404531
v 1.664873 2.212771 -0.454526
v 1.792932 2.574777 -0.404532
v 1.741820 2.574777 -0.454526
v 1.721960 2.908669 0.416146
v 1.682180 2.998018 0.416146
v 1.664873 2.936782 0.466141
v 1.481538 3.274179 0.416146
v 1.447338 3.236194 0.466141
v 1.142622 3.469851 0.416146
v 1.126828 3.421240 0.466141
v 0.753419 3.510757 0.416146
v 0.758762 3.459926 0.466141
v 0.381226 3.389825 0.416146
v 0.406782 3.345561 0.466141
v 0.090399 3.127963 0.416146
v 0.131750 3.097920 0.466141
v -0.068776 2.770450 0.416146
v -0.018781 2.759823 0.466141
v -0.068776 2.379104 0.416147
v -0.018781 2.389730 0.466141
v 0.090399 2.021591 0.416147
v 0.131749 2.051633 0.466141
v 0.381226 1.759729 0.416147
v 0.406782 1.803993 0.466141
v 0.753419 1.638796 0.416147
v 0.758762 1.689628 0.466142
v 1.142622 1.679702 0.416147
v 1.126827 1.728313 0.466142
v 1.481538 1.875376 0.416147
v 1.447338 1.913359 0.466141
v 1.711566 2.191981 0.416147
v 1.664873 2.212771 0.466141
v 1.792932 2.574777 0.416146
v 1.741820 2.574777 0.466141
v -0.000000 -0.000000 -0.820767
v -0.000000 -0.000000 0.832383
v 0.352691 0.610878 -0.758881
v 0.322325 0.558283 -0.820767
v -0.352691 0.610878 -0.758881
v -0.322326 0.558283 -0.820767
v -0.705382 -0.000000 -0.758881
v -0.644651 -0.000000 -0.820767
v -0.352691 -0.610879 -0.758881
v -0.322326 -0.558284 -0.820767
v 0.352691 -0.610879 -0.758881
v 0.322325 -0.558284 -0.820767
v 0.705382 -0.000000 -0.758881
v 0.644651 -0.000000 -0.820767
v 0.352691 0.610878 0.770497
v 0.322325 0.558283 0.832383
v -0.352691 0.610878 0.770497
v -0.322326 0.558283 0.832383
v -0.705382 -0.000000 0.770497
v -0.644651 -0.000000 0.832383
v -0.352691 -0.610879 0.770497
v -0.322326 -0.558284 0.832383
v 0.352691 -0.610879 0.770497
v 0.322325 -0.558284 0.832383
v 0.705382 -0.000000 0.770497
v 0.644651 -0.000000 0.832383
v 0.343821 1.921079 -0.403816
v 0.794504 1.758929 -0.403816
v 1.019846 1.677854 0.009567
v 0.794504 1.758929 0.422951
v 0.343821 1.921079 0.422951
v 0.118479 2.002154 0.009567
v 0.054305 0.706867 -0.403816
v 0.504988 0.544717 -0.403816
v 0.730330 0.463642 0.009567
v 0.504989 0.544717 0.422951
v 0.054305 0.706867 0.422951
v -0.171037 0.787942 0.009567
v 0.569162 1.840004 0.009567
v 0.279647 0.625792 0.009567
vn 0.5823 0.4090 -0.7026
vn 0.6418 0.2858 -0.7116
vn 0.4642 0.5230 -0.7149
vn 0.9674 0.2532 -0.0000
vn 0.8355 0.5495 -0.0000
vn 0.6418 0.2857 -0.7116
vn 0.6936 0.1591 -0.7026
vn 0.6992 -0.0050 -0.7149
vn 0.6993 -0.0050 -0.7149
vn 0.4641 0.5230 -0.7149
vn 0.2161 0.6650 -0.7149
vn 0.2160 0.6650 -0.7149
vn -0.0730 0.6954 -0.7149
vn -0.0731 0.6954 -0.7149
vn -0.3496 0.6056 -0.7149
vn -0.3497 0.6055 -0.7149
vn -0.5657 0.4110 -0.7149
vn -0.6840 0.1454 -0.7149
vn -0.6840 0.1453 -0.7149
vn -0.6840 -0.1453 -0.7149
vn -0.6840 -0.1454 -0.7149
vn -0.5657 -0.4110 -0.7149
vn -0.5657 -0.4111 -0.7149
vn -0.3497 -0.6056 -0.7149
vn -0.3496 -0.6056 -0.7149
vn -0.0731 -0.6954 -0.7149
vn -0.0730 -0.6954 -0.7149
vn 0.2160 -0.6650 -0.7149
vn 0.2161 -0.6650 -0.7149
vn 0.4679 -0.5197 -0.7149
vn 0.4679 -0.5196 -0.7149
vn 0.6388 -0.2844 -0.7149
vn 0.6388 -0.2845 -0.7149
vn 0.6992 -0.0051 -0.7149
vn 0.6936 0.1591 0.7026
vn 0.6418 0.2857 0.7116
vn 0.6993 -0.0050 0.7149
vn 0.6992 -0.0050 0.7149
vn 0.6418 0.2858 0.7116
vn 0.5823 0.4090 0.7026
vn 0.4642 0.5230 0.7149
vn 0.4641 0.5230 0.7149
vn 0.2161 0.6650 0.7149
vn 0.2160 0.6650 0.7149
vn -0.0730 0.6954 0.7149
vn -0.0731 0.6954 0.7149
vn -0.3496 0.6056 0.7149
vn -0.3497 0.6055 0.7149
vn -0.5657 0.4110 0.7149
vn -0.6840 0.1454 0.7149
vn -0.6840 0.1453 0.7149
vn -0.6840 -0.1453 0.7149
vn -0.6840 -0.1454 0.7149
vn -0.5657 -0.4110 0.7149
vn -0.5657 -0.4111 0.7149
vn -0.3497 -0.6055 0.7149
vn -0.3497 -0.6056 0.7149
vn -0.3496 -0.6056 0.7149
vn -0.0731 -0.6954 0.7149
vn -0.0730 -0.6954 0.7149
vn 0.2160 -0.6650 0.7149
vn 0.2161 -0.6650 0.7149
vn 0.4679 -0.5197 0.7149
vn 0.4679 -0.5196 0.7149
vn 0.6388 -0.2845 0.7149
vn 0.6388 -0.2844 0.7149
vn 0.6992 -0.0051 0.7149
vn 0.6993 -0.0051 0.7149
vn 0.6583 0.7528 -0.0000
vn 0.3091 0.9510 -0.0000
vn 0.3090 0.9511 -0.0000
vn -0.1045 0.9945 -0.0000
vn -0.1046 0.9945 -0.0000
vn -0.5000 0.8660 -0.0000
vn -0.5000 0.8660 -0.0001
vn -0.8090 0.5878 -0.0000
vn -0.8090 0.5877 -0.0000
vn -0.9781 0.2080 -0.0000
vn -0.9782 0.2079 -0.0000
vn -0.9782 -0.2079 -0.0000
vn -0.9781 -0.2080 0.0001
vn -0.8090 -0.5877 -0.0000
vn -0.9781 -0.2080 -0.0000
vn -0.8090 -0.5878 -0.0000
vn -0.5000 -0.8660 -0.0000
vn -0.1046 -0.9945 -0.0000
vn -0.1045 -0.9945 0.0001
vn 0.3090 -0.9511 -0.0000
vn -0.1045 -0.9945 -0.0000
vn 0.3091 -0.9510 -0.0000
vn 0.6691 -0.7432 -0.0000
vn 0.6692 -0.7431 -0.0000
vn 0.9135 -0.4068 -0.0000
vn 0.9136 -0.4067 -0.0000
vn 0.9999 -0.0145 -0.0000
vn -0.0000 -0.0000 -1.0000
vn -0.0000 -0.0000 1.0000
vn 0.6936 0.1591 0.7025
vn 0.5824 0.4090 0.7025
vn -0.0000 0.7620 -0.6476
vn 0.6599 0.3810 -0.6476
vn -0.6599 0.3810 -0.6476
vn -0.6599 -0.3810 -0.6476
vn -0.0000 -0.7620 -0.6476
vn 0.6599 -0.3810 -0.6476
vn 0.6599 0.3810 0.6476
vn -0.0000 0.7620 0.6476
vn -0.6599 0.3810 0.6476
vn -0.6599 -0.3810 0.6476
vn -0.0000 -0.7620 0.6476
vn 0.6599 -0.3810 0.6476
vn -0.0000 1.0000 -0.0000
vn -0.8660 0.5000 -0.0000
vn -0.8660 -0.5000 -0.0000
vn -0.0000 -1.0000 -0.0000
vn 0.8660 -0.5000 -0.0000
vn 0.8660 0.5000 -0.0000
vn 0.8430 -0.2010 -0.4990
vn 0.8430 -0.2010 0.4990
vn -0.8430 0.2010 0.4990
vn -0.8430 0.2010 -0.4990
vn 0.3385 0.9410 -0.0000
vn -0.3385 -0.9410 -0.0000
vt 0.377129 0.332914
vt 0.375453 0.312500
vt 0.391214 0.312500
vt 0.391667 0.332915
vt 0.375000 0.330781
vt 0.377129 0.668025
vt 0.375773 0.671007
vt 0.624547 0.312500
vt 0.622871 0.332915
vt 0.608333 0.332915
vt 0.608786 0.312500
vt 0.392119 0.312500
vt 0.407881 0.312500
vt 0.408333 0.332915
vt 0.408786 0.312500
vt 0.424547 0.312500
vt 0.425000 0.332914
vt 0.425453 0.312500
vt 0.441214 0.312500
vt 0.441667 0.332915
vt 0.442119 0.312500
vt 0.457881 0.312500
vt 0.458333 0.332915
vt 0.458786 0.312500
vt 0.474548 0.312500
vt 0.475000 0.332914
vt 0.475453 0.312500
vt 0.491214 0.312500
vt 0.491667 0.332915
vt 0.492119 0.312500
vt 0.507881 0.312500
vt 0.508333 0.332915
vt 0.508786 0.312500
vt 0.524548 0.312500
vt 0.525000 0.332914
vt 0.525453 0.312500
vt 0.541214 0.312500
vt 0.541667 0.332915
vt 0.542119 0.312500
vt 0.557881 0.312500
vt 0.558333 0.332915
vt 0.558786 0.312500
vt 0.574548 0.312500
vt 0.575000 0.332915
vt 0.575453 0.312500
vt 0.591214 0.312500
vt 0.591667 0.332914
vt 0.592119 0.312500
vt 0.607881 0.312500
vt 0.622871 0.668025
vt 0.624547 0.688440
vt 0.608786 0.688440
vt 0.608333 0.668025
vt 0.375453 0.688440
vt 0.391667 0.668025
vt 0.391214 0.688440
vt 0.392119 0.688440
vt 0.408333 0.668025
vt 0.407881 0.688440
vt 0.408786 0.688440
vt 0.425000 0.668025
vt 0.424547 0.688440
vt 0.425453 0.688440
vt 0.441667 0.668025
vt 0.441214 0.688440
vt 0.442119 0.688440
vt 0.458333 0.668025
vt 0.457881 0.688440
vt 0.458786 0.688440
vt 0.475000 0.668025
vt 0.474548 0.688440
vt 0.475453 0.688440
vt 0.491667 0.668025
vt 0.491214 0.688440
vt 0.492119 0.688440
vt 0.508333 0.668025
vt 0.507881 0.688440
vt 0.508786 0.688440
vt 0.525000 0.668025
vt 0.524548 0.688440
vt 0.525453 0.688440
vt 0.541667 0.668025
vt 0.541214 0.688440
vt 0.542119 0.688440
vt 0.558333 0.668025
vt 0.557881 0.688440
vt 0.558786 0.688440
vt 0.575000 0.668025
vt 0.574548 0.688440
vt 0.575453 0.688440
vt 0.591667 0.668025
vt 0.591214 0.688440
vt 0.592119 0.688440
vt 0.607881 0.688440
vt 0.598874 0.046100
vt 0.634989 0.095810
vt 0.500000 0.150000
vt 0.545662 0.015379
vt 0.484554 0.008956
vt 0.426118 0.027943
vt 0.380456 0.069057
vt 0.355465 0.125189
vt 0.355465 0.186632
vt 0.380456 0.242764
vt 0.426118 0.283878
vt 0.484554 0.302865
vt 0.545662 0.296443
vt 0.598874 0.265721
vt 0.634989 0.216012
vt 0.647764 0.155911
vt 0.634989 0.903512
vt 0.598874 0.953221
vt 0.500000 0.837500
vt 0.545662 0.983943
vt 0.484554 0.990365
vt 0.426118 0.971378
vt 0.380456 0.930264
vt 0.355465 0.874132
vt 0.355465 0.812689
vt 0.380456 0.756557
vt 0.426118 0.715443
vt 0.484554 0.696456
vt 0.545662 0.702879
vt 0.598874 0.733600
vt 0.634989 0.783309
vt 0.647764 0.843411
vt 0.375000 0.326573
vt 0.376794 0.312500
vt 0.414873 0.312500
vt 0.416667 0.326573
vt 0.623206 0.312500
vt 0.625000 0.326573
vt 0.583333 0.326573
vt 0.585127 0.312500
vt 0.418460 0.312500
vt 0.456540 0.312500
vt 0.458333 0.326573
vt 0.460127 0.312500
vt 0.498206 0.312500
vt 0.500000 0.326573
vt 0.501794 0.312500
vt 0.539873 0.312500
vt 0.541667 0.326573
vt 0.543460 0.312500
vt 0.581540 0.312500
vt 0.625000 0.674366
vt 0.623206 0.688440
vt 0.585127 0.688440
vt 0.583333 0.674367
vt 0.376794 0.688440
vt 0.375000 0.674367
vt 0.416667 0.674367
vt 0.414873 0.688440
vt 0.418460 0.688440
vt 0.458333 0.674367
vt 0.456540 0.688440
vt 0.460127 0.688440
vt 0.500000 0.674366
vt 0.498206 0.688440
vt 0.501794 0.688440
vt 0.541667 0.674367
vt 0.539873 0.688440
vt 0.543460 0.688440
vt 0.581540 0.688440
vt 0.428601 0.032046
vt 0.571399 0.032046
vt 0.357203 0.155712
vt 0.428601 0.279378
vt 0.571399 0.279378
vt 0.642797 0.155712
vt 0.571399 0.966878
vt 0.428601 0.966878
vt 0.357203 0.843212
vt 0.428601 0.719546
vt 0.571399 0.719546
vt 0.642797 0.843212
vt 0.375000 0.312500
vt 0.416667 0.312500
vt 0.416667 0.688440
vt 0.375000 0.688440
vt 0.458333 0.312500
vt 0.458333 0.688440
vt 0.500000 0.312500
vt 0.500000 0.688440
vt 0.541667 0.312500
vt 0.541667 0.688440
vt 0.583333 0.312500
vt 0.583333 0.688440
vt 0.625000 0.312500
vt 0.625000 0.688440
vt 0.421875 0.020934
vt 0.578125 0.020934
vt 0.343750 0.156250
vt 0.421875 0.291566
vt 0.578125 0.291566
vt 0.656250 0.156250
vt 0.578125 0.979066
vt 0.421875 0.979066
vt 0.343750 0.843750
vt 0.421875 0.708434
vt 0.578125 0.708434
vt 0.656250 0.843750
s 0
usemtl initialShadingGroup
f 3/1/1 5/2/2 7/3/3 6/4/3
f 4/5/4 3/1/5 35/6/5 34/7/4
f 5/8/6 4/9/7 32/10/8 33/11/9
f 6/4/10 7/12/10 9/13/11 8/14/11
f 8/14/12 9/15/12 11/16/13 10/17/13
f 10/17/14 11/18/14 13/19/15 12/20/15
f 12/20/16 13/21/16 15/22/17 14/23/17
f 14/23/17 15/24/17 17/25/18 16/26/18
f 16/26/19 17/27/19 19/28/20 18/29/20
f 18/29/21 19/30/21 21/31/22 20/32/22
f 20/32/22 21/33/23 23/34/24 22/35/24
f 22/35/25 23/36/25 25/37/26 24/38/26
f 24/38/27 25/39/27 27/40/28 26/41/28
f 26/41/29 27/42/29 29/43/30 28/44/30
f 28/44/31 29/45/31 31/46/32 30/47/33
f 30/47/32 31/48/32 33/49/34 32/10/34
f 34/50/35 36/51/36 64/52/37 63/53/38
f 36/54/39 35/6/40 37/55/41 38/56/41
f 38/57/42 37/55/42 39/58/43 40/59/43
f 40/60/44 39/58/44 41/61/45 42/62/45
f 42/63/46 41/61/46 43/64/47 44/65/47
f 44/66/48 43/64/48 45/67/49 46/68/49
f 46/69/49 45/67/49 47/70/50 48/71/50
f 48/72/51 47/70/51 49/73/52 50/74/52
f 50/75/53 49/73/53 51/76/54 52/77/54
f 52/78/55 51/76/54 53/79/56 54/80/57
f 54/81/58 53/79/58 55/82/59 56/83/59
f 56/84/60 55/82/60 57/85/61 58/86/61
f 58/87/62 57/85/62 59/88/63 60/89/63
f 60/90/64 59/88/64 61/91/65 62/92/65
f 62/93/66 61/91/66 63/53/67 64/94/68
f 3/1/5 6/4/69 37/55/69 35/6/5
f 6/4/69 8/14/70 39/58/70 37/55/69
f 8/14/71 10/17/72 41/61/72 39/58/71
f 10/17/73 12/20/74 43/64/75 41/61/73
f 12/20/74 14/23/76 45/67/76 43/64/74
f 14/23/77 16/26/78 47/70/78 45/67/77
f 16/26/79 18/29/80 49/73/80 47/70/79
f 18/29/81 20/32/82 51/76/82 49/73/83
f 20/32/84 22/35/85 53/79/85 51/76/84
f 22/35/85 24/38/86 55/82/86 53/79/85
f 24/38/87 26/41/88 57/85/88 55/82/89
f 26/41/90 28/44/91 59/88/91 57/85/90
f 28/44/92 30/47/93 61/91/93 59/88/92
f 30/47/94 32/10/95 63/53/95 61/91/94
f 32/10/95 4/9/4 34/50/4 63/53/95
f 7/95/96 5/96/96 1/97/96
f 9/98/96 7/95/96 1/97/96
f 11/99/96 9/98/96 1/97/96
f 13/100/96 11/99/96 1/97/96
f 15/101/96 13/100/96 1/97/96
f 17/102/96 15/101/96 1/97/96
f 19/103/96 17/102/96 1/97/96
f 21/104/96 19/103/96 1/97/96
f 23/105/96 21/104/96 1/97/96
f 25/106/96 23/105/96 1/97/96
f 27/107/96 25/106/96 1/97/96
f 29/108/96 27/107/96 1/97/96
f 31/109/96 29/108/96 1/97/96
f 33/110/96 31/109/96 1/97/96
f 5/96/96 33/110/96 1/97/96
f 36/111/97 38/112/97 2/113/97
f 38/112/97 40/114/97 2/113/97
f 40/114/97 42/115/97 2/113/97
f 42/115/97 44/116/97 2/113/97
f 44/116/97 46/117/97 2/113/97
f 46/117/97 48/118/97 2/113/97
f 48/118/97 50/119/97 2/113/97
f 50/119/97 52/120/97 2/113/97
f 52/120/97 54/121/97 2/113/97
f 54/121/97 56/122/97 2/113/97
f 56/122/97 58/123/97 2/113/97
f 58/123/97 60/124/97 2/113/97
f 60/124/97 62/125/97 2/113/97
f 62/125/97 64/126/97 2/113/97
f 64/126/97 36/111/97 2/113/97
f 3/1/1 4/5/7 5/2/2
f 34/7/98 35/6/99 36/54/39
f 67/127/100 68/128/100 70/129/100 69/130/100
f 68/131/101 67/132/101 77/133/101 78/134/101
f 69/130/102 70/135/102 72/136/102 71/137/102
f 71/137/103 72/138/103 74/139/103 73/140/103
f 73/140/104 74/141/104 76/142/104 75/143/104
f 75/143/105 76/144/105 78/145/105 77/133/105
f 79/146/106 80/147/106 90/148/106 89/149/106
f 80/150/107 79/151/107 81/152/107 82/153/107
f 82/154/108 81/152/108 83/155/108 84/156/108
f 84/157/109 83/155/109 85/158/109 86/159/109
f 86/160/110 85/158/110 87/161/110 88/162/110
f 88/163/111 87/161/111 89/149/111 90/164/111
f 67/127/112 69/130/112 81/152/112 79/151/112
f 69/130/113 71/137/113 83/155/113 81/152/113
f 71/137/114 73/140/114 85/158/114 83/155/114
f 73/140/115 75/143/115 87/161/115 85/158/115
f 75/143/116 77/133/116 89/149/116 87/161/116
f 77/133/117 67/132/117 79/146/117 89/149/117
f 70/165/96 68/166/96 65/97/96
f 72/167/96 70/165/96 65/97/96
f 74/168/96 72/167/96 65/97/96
f 76/169/96 74/168/96 65/97/96
f 78/170/96 76/169/96 65/97/96
f 68/166/96 78/170/96 65/97/96
f 80/171/97 82/172/97 66/113/97
f 82/172/97 84/173/97 66/113/97
f 84/173/97 86/174/97 66/113/97
f 86/174/97 88/175/97 66/113/97
f 88/175/97 90/176/97 66/113/97
f 90/176/97 80/171/97 66/113/97
f 91/177/96 92/178/96 98/179/96 97/180/96
f 92/178/118 93/181/118 99/182/118 98/179/118
f 93/181/119 94/183/119 100/184/119 99/182/119
f 94/183/97 95/185/97 101/186/97 100/184/97
f 95/185/120 96/187/120 102/188/120 101/186/120
f 96/187/121 91/189/121 97/190/121 102/188/121
f 92/191/122 91/192/122 103/97/122
f 93/193/122 92/191/122 103/97/122
f 94/194/122 93/193/122 103/97/122
f 95/195/122 94/194/122 103/97/122
f 96/196/122 95/195/122 103/97/122
f 91/192/122 96/196/122 103/97/122
f 97/197/123 98/198/123 104/113/123
f 98/198/123 99/199/123 104/113/123
f 99/199/123 100/200/123 104/113/123
f 100/200/123 101/201/123 104/113/123
f 101/201/123 102/202/123 104/113/123
f 102/202/123 97/197/123 104/113/123
