# Blender 4.1.0
# www.blender.org
mtllib Base.mtl
o Base
v 0.000382 3.863835 -0.861815
v 0.000382 3.863835 0.873431
v 1.019927 4.317765 -0.811820
v 0.973233 4.296976 -0.861815
v 0.747152 4.693207 -0.811820
v 0.712952 4.655223 -0.861815
v 0.345255 4.925243 -0.811820
v 0.329460 4.876632 -0.861815
v -0.116274 4.973751 -0.811820
v -0.110932 4.922919 -0.861815
v -0.557633 4.830346 -0.811820
v -0.532077 4.786082 -0.861815
v -0.902505 4.519821 -0.811820
v -0.861155 4.489779 -0.861815
v -1.091260 4.095871 -0.811820
v -1.041265 4.085244 -0.861815
v -1.091260 3.631799 -0.811820
v -1.041265 3.642426 -0.861815
v -0.902505 3.207849 -0.811820
v -0.861155 3.237892 -0.861815
v -0.557633 2.897325 -0.811820
v -0.532077 2.941589 -0.861815
v -0.116275 2.753919 -0.811820
v -0.110932 2.804751 -0.861815
v 0.345255 2.802427 -0.811820
v 0.329460 2.851037 -0.861815
v 0.747152 3.034463 -0.811820
v 0.712952 3.072447 -0.861815
v 1.019927 3.409905 -0.811820
v 0.973234 3.430694 -0.861815
v 1.116413 3.863835 -0.811820
v 1.065301 3.863835 -0.861815
v 1.019927 4.317765 0.823436
v 0.973233 4.296976 0.873431
v 0.747152 4.693207 0.823436
v 0.712952 4.655223 0.873431
v 0.345255 4.925243 0.823436
v 0.329460 4.876632 0.873431
v -0.116274 4.973751 0.823436
v -0.110932 4.922919 0.873431
v -0.557633 4.830346 0.823436
v -0.532077 4.786082 0.873431
v -0.902505 4.519821 0.823436
v -0.861155 4.489779 0.873431
v -1.091260 4.095871 0.823436
v -1.041265 4.085244 0.873431
v -1.091260 3.631799 0.823436
v -1.041265 3.642426 0.873431
v -0.902505 3.207849 0.823436
v -0.861155 3.237892 0.873431
v -0.557633 2.897325 0.823436
v -0.532077 2.941589 0.873431
v -0.116275 2.753919 0.823436
v -0.110932 2.804751 0.873431
v 0.345255 2.802427 0.823436
v 0.329460 2.851037 0.873431
v 0.747152 3.034463 0.823436
v 0.712952 3.072447 0.873431
v 1.019927 3.409905 0.823436
v 0.973234 3.430694 0.873431
v 1.116413 3.863835 0.823436
v 1.065301 3.863835 0.873431
v 0.405624 1.709324 -0.696752
v -0.405623 1.709324 -0.696752
v -0.811247 1.709324 0.005808
v -0.405624 1.709324 0.708368
v 0.405623 1.709324 0.708368
v 0.811247 1.709324 0.005808
v 0.405624 3.119189 -0.696752
v -0.405623 3.119189 -0.696752
v -0.811247 3.119189 0.005808
v -0.405624 3.119189 0.708368
v 0.405623 3.119189 0.708368
v 0.811247 3.119189 0.005808
v 0.000000 1.709324 0.005808
v 0.000000 3.119189 0.005808
v 0.405624 1.709324 -0.696752
v -0.405623 1.709324 -0.696752
v -0.811247 1.709324 0.005808
v -0.405624 1.709324 0.708368
v 0.405623 1.709324 0.708368
v 0.811247 1.709324 0.005808
v 1.791679 -0.004623 -0.791898
v 1.312324 -0.004623 -1.451675
v 0.606056 -0.004623 -1.859439
v -0.205005 -0.004623 -1.944685
v -0.980618 -0.004623 -1.692673
v -1.586674 -0.004623 -1.146978
v -1.918379 -0.004623 -0.401956
v -1.918379 -0.004623 0.413572
v -1.586674 -0.004623 1.158594
v -0.980619 -0.004623 1.704289
v -0.205005 -0.004623 1.956301
v 0.606055 -0.004623 1.871055
v 1.312324 -0.004623 1.463291
v 1.791679 -0.004623 0.803515
v 1.961237 -0.004623 0.005808
v 0.000000 -0.004623 0.005808
v 0.000000 1.711140 0.005808
v 1.791679 1.661145 -0.791898
v 1.744986 1.711140 -0.771109
v 1.312324 1.661145 -1.451675
v 1.278123 1.711140 -1.413691
v 0.606056 1.661145 -1.859439
v 0.590261 1.711140 -1.810828
v -0.205005 1.661145 -1.944685
v -0.199662 1.711140 -1.893853
v -0.980618 1.661145 -1.692673
v -0.955062 1.711140 -1.648409
v -1.586674 1.661145 -1.146978
v -1.545323 1.711140 -1.116935
v -1.918379 1.661145 -0.401956
v -1.868384 1.711140 -0.391329
v -1.918379 1.661145 0.413572
v -1.868384 1.711140 0.402945
v -1.586674 1.661145 1.158594
v -1.545324 1.711140 1.128551
v -0.980619 1.661145 1.704289
v -0.955063 1.711140 1.660025
v -0.205005 1.661145 1.956301
v -0.199663 1.711140 1.905469
v 0.606055 1.661145 1.871055
v 0.590261 1.711140 1.822445
v 1.312324 1.661145 1.463291
v 1.278123 1.711140 1.425308
v 1.791679 1.661145 0.803515
v 1.744986 1.711140 0.782726
v 1.961237 1.661145 0.005808
v 1.910125 1.711140 0.005808
vn 0.6388 0.2844 -0.7149
vn 0.6388 0.2845 -0.7149
vn 0.4679 0.5196 -0.7149
vn 0.6992 -0.0000 -0.7149
vn 0.6993 -0.0000 -0.7149
vn 0.4679 0.5197 -0.7149
vn 0.2161 0.6650 -0.7149
vn 0.2160 0.6650 -0.7149
vn -0.0730 0.6954 -0.7149
vn -0.0731 0.6954 -0.7149
vn -0.3496 0.6056 -0.7149
vn -0.3497 0.6055 -0.7149
vn -0.3497 0.6056 -0.7149
vn -0.5657 0.4111 -0.7149
vn -0.5657 0.4110 -0.7149
vn -0.6840 0.1454 -0.7149
vn -0.6840 0.1453 -0.7149
vn -0.6840 -0.1453 -0.7149
vn -0.6840 -0.1454 -0.7149
vn -0.5657 -0.4110 -0.7149
vn -0.5657 -0.4111 -0.7149
vn -0.3497 -0.6056 -0.7149
vn -0.3497 -0.6055 -0.7149
vn -0.3496 -0.6056 -0.7149
vn -0.0731 -0.6954 -0.7149
vn -0.0730 -0.6954 -0.7149
vn 0.2160 -0.6650 -0.7149
vn 0.2161 -0.6650 -0.7149
vn 0.4679 -0.5197 -0.7149
vn 0.4679 -0.5196 -0.7149
vn 0.6388 -0.2845 -0.7149
vn 0.6388 -0.2844 -0.7149
vn 0.6388 0.2844 0.7149
vn 0.6993 -0.0000 0.7149
vn 0.6388 0.2845 0.7149
vn 0.4679 0.5196 0.7149
vn 0.4679 0.5197 0.7149
vn 0.2161 0.6650 0.7149
vn 0.2160 0.6650 0.7149
vn -0.0730 0.6954 0.7149
vn -0.0731 0.6954 0.7149
vn -0.3496 0.6056 0.7149
vn -0.3497 0.6056 0.7149
vn -0.5657 0.4110 0.7149
vn -0.5657 0.4111 0.7149
vn -0.6840 0.1454 0.7149
vn -0.6840 0.1453 0.7149
vn -0.6840 -0.1453 0.7149
vn -0.6840 -0.1454 0.7149
vn -0.5657 -0.4110 0.7149
vn -0.5657 -0.4111 0.7149
vn -0.3497 -0.6055 0.7149
vn -0.3497 -0.6056 0.7149
vn -0.3496 -0.6056 0.7149
vn -0.0731 -0.6954 0.7149
vn -0.0730 -0.6954 0.7149
vn 0.2160 -0.6650 0.7149
vn 0.2161 -0.6650 0.7149
vn 0.4679 -0.5197 0.7149
vn 0.4679 -0.5196 0.7149
vn 0.6388 -0.2845 0.7149
vn 0.6388 -0.2844 0.7149
vn 0.6992 -0.0000 0.7149
vn 0.9135 0.4068 -0.0000
vn 0.6692 0.7431 -0.0000
vn 0.6692 0.7431 -0.0001
vn 0.6691 0.7432 -0.0000
vn 0.3091 0.9510 -0.0000
vn 0.3091 0.9510 -0.0001
vn 0.3090 0.9511 -0.0000
vn -0.1045 0.9945 -0.0000
vn -0.1045 0.9945 -0.0001
vn -0.1046 0.9945 -0.0000
vn -0.5000 0.8660 -0.0000
vn -0.8090 0.5878 -0.0000
vn -0.8090 0.5877 -0.0000
vn -0.9781 0.2080 -0.0000
vn -0.9782 0.2079 -0.0000
vn -0.9782 -0.2079 -0.0000
vn -0.9781 -0.2080 -0.0000
vn -0.8090 -0.5877 -0.0000
vn -0.8090 -0.5878 -0.0000
vn -0.5000 -0.8660 -0.0000
vn -0.1046 -0.9945 -0.0000
vn -0.1045 -0.9945 0.0001
vn 0.3090 -0.9511 -0.0000
vn 0.3090 -0.9511 -0.0001
vn -0.1045 -0.9945 -0.0000
vn 0.3091 -0.9510 0.0001
vn 0.6691 -0.7432 -0.0000
vn 0.3091 -0.9510 -0.0000
vn 0.6692 -0.7431 -0.0000
vn 0.9135 -0.4068 -0.0000
vn 0.9136 -0.4067 -0.0000
vn 1.0000 -0.0000 -0.0000
vn 1.0000 -0.0000 -0.0001
vn 1.0000 -0.0000 0.0001
vn 0.9136 0.4067 -0.0000
vn -0.0000 -0.0000 -1.0000
vn -0.0000 -0.0000 1.0000
vn -0.8660 -0.0000 -0.5000
vn -0.8660 -0.0000 0.5000
vn 0.8660 -0.0000 0.5000
vn 0.8660 -0.0000 -0.5000
vn -0.0000 -1.0000 -0.0000
vn -0.0000 1.0000 -0.0000
vn 0.6388 0.7149 -0.2844
vn 0.6993 0.7149 -0.0000
vn 0.6388 0.7149 -0.2845
vn 0.4679 0.7149 -0.5196
vn 0.4679 0.7149 -0.5197
vn 0.2161 0.7149 -0.6650
vn 0.2160 0.7149 -0.6650
vn -0.0730 0.7149 -0.6954
vn -0.0731 0.7149 -0.6954
vn -0.3496 0.7149 -0.6056
vn -0.3497 0.7149 -0.6056
vn -0.3497 0.7149 -0.6055
vn -0.5657 0.7149 -0.4110
vn -0.5657 0.7149 -0.4111
vn -0.6840 0.7149 -0.1454
vn -0.6840 0.7149 -0.1453
vn -0.6840 0.7149 0.1453
vn -0.6840 0.7149 0.1454
vn -0.5657 0.7149 0.4110
vn -0.3497 0.7149 0.6055
vn -0.3497 0.7149 0.6056
vn -0.3496 0.7149 0.6056
vn -0.0731 0.7149 0.6954
vn -0.0730 0.7149 0.6954
vn 0.2160 0.7149 0.6650
vn 0.2160 0.7149 0.6651
vn 0.2161 0.7149 0.6650
vn 0.4679 0.7149 0.5197
vn 0.4679 0.7149 0.5196
vn 0.6388 0.7149 0.2845
vn 0.6388 0.7149 0.2844
vn 0.9135 -0.0000 -0.4068
vn 0.6692 -0.0000 -0.7431
vn 0.6691 -0.0000 -0.7432
vn 0.3091 -0.0000 -0.9510
vn 0.3090 -0.0000 -0.9511
vn -0.1045 -0.0000 -0.9945
vn -0.1046 -0.0000 -0.9945
vn -0.5000 -0.0000 -0.8660
vn -0.8090 -0.0000 -0.5878
vn -0.8090 -0.0000 -0.5877
vn -0.9781 -0.0000 -0.2080
vn -0.9782 -0.0000 -0.2079
vn -0.9782 -0.0000 0.2079
vn -0.9781 -0.0000 0.2080
vn -0.8090 -0.0000 0.5877
vn -0.8090 -0.0000 0.5878
vn -0.5000 -0.0000 0.8660
vn -0.1046 -0.0000 0.9945
vn -0.1045 -0.0000 0.9945
vn 0.3090 -0.0000 0.9511
vn 0.3091 -0.0000 0.9510
vn 0.6691 -0.0000 0.7432
vn 0.6692 -0.0000 0.7431
vn 0.9135 -0.0000 0.4068
vn 0.9136 -0.0000 0.4067
vn 0.9136 -0.0000 -0.4067
vt 0.375000 0.323332
vt 0.375382 0.312500
vt 0.391285 0.312500
vt 0.391667 0.323331
vt 0.624618 0.312500
vt 0.625000 0.323331
vt 0.608333 0.323331
vt 0.608715 0.312500
vt 0.392048 0.312500
vt 0.407952 0.312500
vt 0.408333 0.323331
vt 0.408715 0.312500
vt 0.424618 0.312500
vt 0.425000 0.323332
vt 0.425382 0.312500
vt 0.441285 0.312500
vt 0.441667 0.323331
vt 0.442048 0.312500
vt 0.457952 0.312500
vt 0.458333 0.323331
vt 0.458715 0.312500
vt 0.474618 0.312500
vt 0.475000 0.323332
vt 0.475382 0.312500
vt 0.491285 0.312500
vt 0.491667 0.323331
vt 0.492048 0.312500
vt 0.507952 0.312500
vt 0.508333 0.323331
vt 0.508715 0.312500
vt 0.524618 0.312500
vt 0.525000 0.323332
vt 0.525382 0.312500
vt 0.541285 0.312500
vt 0.541667 0.323331
vt 0.542048 0.312500
vt 0.557952 0.312500
vt 0.558333 0.323331
vt 0.558715 0.312500
vt 0.574618 0.312500
vt 0.575000 0.323332
vt 0.575382 0.312500
vt 0.591285 0.312500
vt 0.591667 0.323332
vt 0.592048 0.312500
vt 0.607952 0.312500
vt 0.625000 0.677608
vt 0.624618 0.688440
vt 0.608715 0.688440
vt 0.608333 0.677608
vt 0.375382 0.688440
vt 0.375000 0.677608
vt 0.391667 0.677608
vt 0.391285 0.688440
vt 0.392048 0.688440
vt 0.408333 0.677608
vt 0.407952 0.688440
vt 0.408715 0.688440
vt 0.425000 0.677608
vt 0.424618 0.688440
vt 0.425382 0.688440
vt 0.441667 0.677608
vt 0.441285 0.688440
vt 0.442048 0.688440
vt 0.458333 0.677608
vt 0.457952 0.688440
vt 0.458715 0.688440
vt 0.475000 0.677608
vt 0.474618 0.688440
vt 0.475382 0.688440
vt 0.491667 0.677608
vt 0.491285 0.688440
vt 0.492048 0.688440
vt 0.508333 0.677608
vt 0.507952 0.688440
vt 0.508715 0.688440
vt 0.525000 0.677608
vt 0.524618 0.688440
vt 0.525382 0.688440
vt 0.541667 0.677608
vt 0.541285 0.688440
vt 0.542048 0.688440
vt 0.558333 0.677608
vt 0.557952 0.688440
vt 0.558715 0.688440
vt 0.575000 0.677608
vt 0.574618 0.688440
vt 0.575382 0.688440
vt 0.591667 0.677608
vt 0.591285 0.688440
vt 0.592048 0.688440
vt 0.607952 0.688440
vt 0.599763 0.045165
vt 0.636204 0.095322
vt 0.500000 0.150000
vt 0.546073 0.014167
vt 0.484416 0.007686
vt 0.425453 0.026845
vt 0.379380 0.068328
vt 0.354164 0.124965
vt 0.354164 0.186962
vt 0.379380 0.243599
vt 0.425453 0.285083
vt 0.484415 0.304241
vt 0.546073 0.297761
vt 0.599763 0.266762
vt 0.636204 0.216606
vt 0.649094 0.155964
vt 0.636204 0.904106
vt 0.599763 0.954262
vt 0.500000 0.837500
vt 0.546073 0.985261
vt 0.484415 0.991741
vt 0.425453 0.972583
vt 0.379380 0.931099
vt 0.354164 0.874462
vt 0.354164 0.812465
vt 0.379380 0.755828
vt 0.425453 0.714345
vt 0.484415 0.695186
vt 0.546073 0.701667
vt 0.599763 0.732665
vt 0.636204 0.782822
vt 0.649094 0.843464
vt 0.375000 0.312500
vt 0.416667 0.312500
vt 0.416667 0.688440
vt 0.375000 0.688440
vt 0.458333 0.312500
vt 0.458333 0.688440
vt 0.500000 0.312500
vt 0.500000 0.688440
vt 0.541667 0.312500
vt 0.541667 0.688440
vt 0.583333 0.312500
vt 0.583333 0.688440
vt 0.625000 0.312500
vt 0.625000 0.688440
vt 0.421875 0.020934
vt 0.578125 0.020934
vt 0.343750 0.156250
vt 0.421875 0.291566
vt 0.578125 0.291566
vt 0.656250 0.156250
vt 0.578125 0.979066
vt 0.421875 0.979066
vt 0.343750 0.843750
vt 0.421875 0.708434
vt 0.578125 0.708434
vt 0.656250 0.843750
vt 0.604552 0.040134
vt 0.642741 0.092697
vt 0.548284 0.007647
vt 0.483667 0.000856
vt 0.373591 0.064409
vt 0.347164 0.123764
vt 0.347164 0.188736
vt 0.373591 0.248091
vt 0.483667 0.311644
vt 0.548284 0.304853
vt 0.604552 0.272366
vt 0.642741 0.219803
vt 0.625000 0.677485
vt 0.624783 0.688440
vt 0.608551 0.688440
vt 0.608333 0.677485
vt 0.375217 0.688440
vt 0.375000 0.677485
vt 0.391667 0.677485
vt 0.391450 0.688440
vt 0.391884 0.688440
vt 0.408333 0.677485
vt 0.408116 0.688440
vt 0.408551 0.688440
vt 0.425000 0.677485
vt 0.424783 0.688440
vt 0.425217 0.688440
vt 0.441667 0.677485
vt 0.441450 0.688440
vt 0.441884 0.688440
vt 0.458333 0.677485
vt 0.458116 0.688440
vt 0.458551 0.688440
vt 0.475000 0.677485
vt 0.474783 0.688440
vt 0.475217 0.688440
vt 0.491667 0.677485
vt 0.491450 0.688440
vt 0.491884 0.688440
vt 0.508333 0.677485
vt 0.508116 0.688440
vt 0.508551 0.688440
vt 0.525000 0.677485
vt 0.524783 0.688440
vt 0.525217 0.688440
vt 0.541667 0.677485
vt 0.541450 0.688440
vt 0.541884 0.688440
vt 0.558333 0.677485
vt 0.558116 0.688440
vt 0.558551 0.688440
vt 0.575000 0.677485
vt 0.574783 0.688440
vt 0.575217 0.688440
vt 0.591667 0.677485
vt 0.591450 0.688440
vt 0.591884 0.688440
vt 0.608116 0.688440
vt 0.391667 0.312500
vt 0.408333 0.312500
vt 0.425000 0.312500
vt 0.441667 0.312500
vt 0.475000 0.312500
vt 0.491667 0.312500
vt 0.508333 0.312500
vt 0.525000 0.312500
vt 0.558333 0.312500
vt 0.575000 0.312500
vt 0.591667 0.312500
vt 0.608333 0.312500
vt 0.639021 0.905483
vt 0.601827 0.956677
vt 0.547026 0.988317
vt 0.484093 0.994931
vt 0.423911 0.975377
vt 0.376885 0.933035
vt 0.351148 0.875227
vt 0.351148 0.811948
vt 0.376886 0.754139
vt 0.423911 0.711797
vt 0.484093 0.692243
vt 0.547026 0.698857
vt 0.601827 0.730497
vt 0.639021 0.781691
vt 0.652178 0.843587
s 0
usemtl initialShadingGroup
f 3/1/1 4/2/2 6/3/3 5/4/3
f 4/5/1 3/6/1 31/7/4 32/8/5
f 5/4/6 6/9/6 8/10/7 7/11/7
f 7/11/8 8/12/8 10/13/9 9/14/9
f 9/14/10 10/15/10 12/16/11 11/17/11
f 11/17/12 12/18/13 14/19/14 13/20/15
f 13/20/15 14/21/15 16/22/16 15/23/16
f 15/23/17 16/24/17 18/25/18 17/26/18
f 17/26/19 18/27/19 20/28/20 19/29/20
f 19/29/20 20/30/21 22/31/22 21/32/23
f 21/32/24 22/33/24 24/34/25 23/35/25
f 23/35/26 24/36/26 26/37/27 25/38/27
f 25/38/28 26/39/28 28/40/29 27/41/29
f 27/41/30 28/42/30 30/43/31 29/44/31
f 29/44/32 30/45/32 32/46/5 31/7/5
f 33/47/33 34/48/33 62/49/34 61/50/34
f 34/51/35 33/52/35 35/53/36 36/54/36
f 36/55/37 35/53/37 37/56/38 38/57/38
f 38/58/39 37/56/39 39/59/40 40/60/40
f 40/61/41 39/59/41 41/62/42 42/63/42
f 42/64/43 41/62/43 43/65/44 44/66/45
f 44/67/44 43/65/44 45/68/46 46/69/46
f 46/70/47 45/68/47 47/71/48 48/72/48
f 48/73/49 47/71/49 49/74/50 50/75/50
f 50/76/51 49/74/50 51/77/52 52/78/53
f 52/79/54 51/77/54 53/80/55 54/81/55
f 54/82/56 53/80/56 55/83/57 56/84/57
f 56/85/58 55/83/58 57/86/59 58/87/59
f 58/88/60 57/86/60 59/89/61 60/90/61
f 60/91/62 59/89/62 61/50/63 62/92/34
f 3/1/64 5/4/65 35/53/66 33/52/64
f 5/4/67 7/11/68 37/56/69 35/53/67
f 7/11/70 9/14/71 39/59/72 37/56/70
f 9/14/73 11/17/74 41/62/74 39/59/73
f 11/17/74 13/20/75 43/65/75 41/62/74
f 13/20/76 15/23/77 45/68/77 43/65/76
f 15/23/78 17/26/79 47/71/79 45/68/78
f 17/26/80 19/29/81 49/74/81 47/71/80
f 19/29/82 21/32/83 51/77/83 49/74/82
f 21/32/83 23/35/84 53/80/84 51/77/83
f 23/35/85 25/38/86 55/83/87 53/80/88
f 25/38/89 27/41/90 57/86/90 55/83/91
f 27/41/92 29/44/93 59/89/93 57/86/92
f 29/44/94 31/7/95 61/50/96 59/89/94
f 31/7/97 3/6/98 33/47/98 61/50/95
f 6/93/99 4/94/99 1/95/99
f 8/96/99 6/93/99 1/95/99
f 10/97/99 8/96/99 1/95/99
f 12/98/99 10/97/99 1/95/99
f 14/99/99 12/98/99 1/95/99
f 16/100/99 14/99/99 1/95/99
f 18/101/99 16/100/99 1/95/99
f 20/102/99 18/101/99 1/95/99
f 22/103/99 20/102/99 1/95/99
f 24/104/99 22/103/99 1/95/99
f 26/105/99 24/104/99 1/95/99
f 28/106/99 26/105/99 1/95/99
f 30/107/99 28/106/99 1/95/99
f 32/108/99 30/107/99 1/95/99
f 4/94/99 32/108/99 1/95/99
f 34/109/100 36/110/100 2/111/100
f 36/110/100 38/112/100 2/111/100
f 38/112/100 40/113/100 2/111/100
f 40/113/100 42/114/100 2/111/100
f 42/114/100 44/115/100 2/111/100
f 44/115/100 46/116/100 2/111/100
f 46/116/100 48/117/100 2/111/100
f 48/117/100 50/118/100 2/111/100
f 50/118/100 52/119/100 2/111/100
f 52/119/100 54/120/100 2/111/100
f 54/120/100 56/121/100 2/111/100
f 56/121/100 58/122/100 2/111/100
f 58/122/100 60/123/100 2/111/100
f 60/123/100 62/124/100 2/111/100
f 62/124/100 34/109/100 2/111/100
f 63/125/99 64/126/99 70/127/99 69/128/99
f 64/126/101 65/129/101 71/130/101 70/127/101
f 65/129/102 66/131/102 72/132/102 71/130/102
f 66/131/100 67/133/100 73/134/100 72/132/100
f 67/133/103 68/135/103 74/136/103 73/134/103
f 68/135/104 63/137/104 69/138/104 74/136/104
f 64/139/105 63/140/105 75/95/105
f 65/141/105 64/139/105 75/95/105
f 66/142/105 65/141/105 75/95/105
f 67/143/105 66/142/105 75/95/105
f 68/144/105 67/143/105 75/95/105
f 63/140/105 68/144/105 75/95/105
f 69/145/106 70/146/106 76/111/106
f 70/146/106 71/147/106 76/111/106
f 71/147/106 72/148/106 76/111/106
f 72/148/106 73/149/106 76/111/106
f 73/149/106 74/150/106 76/111/106
f 74/150/106 69/145/106 76/111/106
f 84/151/105 83/152/105 98/95/105
f 85/153/105 84/151/105 98/95/105
f 86/154/105 85/153/105 98/95/105
f 87/139/105 86/154/105 98/95/105
f 88/155/105 87/139/105 98/95/105
f 89/156/105 88/155/105 98/95/105
f 90/157/105 89/156/105 98/95/105
f 91/158/105 90/157/105 98/95/105
f 92/142/105 91/158/105 98/95/105
f 93/159/105 92/142/105 98/95/105
f 94/160/105 93/159/105 98/95/105
f 95/161/105 94/160/105 98/95/105
f 96/162/105 95/161/105 98/95/105
f 97/144/105 96/162/105 98/95/105
f 83/152/105 97/144/105 98/95/105
f 100/163/107 101/164/107 129/165/108 128/166/108
f 101/167/109 100/168/109 102/169/110 103/170/110
f 103/171/111 102/169/111 104/172/112 105/173/112
f 105/174/113 104/172/113 106/175/114 107/176/114
f 107/177/115 106/175/115 108/178/116 109/179/116
f 109/180/117 108/178/118 110/181/119 111/182/120
f 111/183/119 110/181/119 112/184/121 113/185/121
f 113/186/122 112/184/122 114/187/123 115/188/123
f 115/189/124 114/187/124 116/190/125 117/191/125
f 117/192/125 116/190/125 118/193/126 119/194/127
f 119/195/128 118/193/128 120/196/129 121/197/129
f 121/198/130 120/196/130 122/199/131 123/200/132
f 123/201/133 122/199/133 124/202/134 125/203/134
f 125/204/135 124/202/135 126/205/136 127/206/136
f 127/207/137 126/205/137 128/166/108 129/208/108
f 83/125/138 84/209/139 102/169/139 100/168/138
f 84/209/140 85/210/141 104/172/141 102/169/140
f 85/210/142 86/211/143 106/175/143 104/172/142
f 86/211/144 87/212/145 108/178/145 106/175/144
f 87/212/145 88/129/146 110/181/146 108/178/145
f 88/129/147 89/213/148 112/184/148 110/181/147
f 89/213/149 90/214/150 114/187/150 112/184/149
f 90/214/151 91/215/152 116/190/152 114/187/151
f 91/215/153 92/216/154 118/193/154 116/190/153
f 92/216/154 93/133/155 120/196/155 118/193/154
f 93/133/156 94/217/157 122/199/157 120/196/156
f 94/217/158 95/218/159 124/202/159 122/199/158
f 95/218/160 96/219/161 126/205/161 124/202/160
f 96/219/162 97/220/95 128/166/95 126/205/162
f 97/220/95 83/137/163 100/163/163 128/166/95
f 101/221/106 103/222/106 99/111/106
f 103/222/106 105/223/106 99/111/106
f 105/223/106 107/224/106 99/111/106
f 107/224/106 109/225/106 99/111/106
f 109/225/106 111/226/106 99/111/106
f 111/226/106 113/227/106 99/111/106
f 113/227/106 115/228/106 99/111/106
f 115/228/106 117/229/106 99/111/106
f 117/229/106 119/230/106 99/111/106
f 119/230/106 121/231/106 99/111/106
f 121/231/106 123/232/106 99/111/106
f 123/232/106 125/233/106 99/111/106
f 125/233/106 127/234/106 99/111/106
f 127/234/106 129/235/106 99/111/106
f 129/235/106 101/221/106 99/111/106
l 77 78
l 77 82
l 78 79
l 79 80
l 80 81
l 81 82
