# Blender 4.1.0
# www.blender.org
mtllib base.mtl
o Base
v 0.000391 5.530734 -0.867651
v 0.000391 5.530734 0.867595
v 1.019936 5.984664 -0.817656
v 0.973242 5.963875 -0.867651
v 0.747161 6.360106 -0.817656
v 0.712961 6.322122 -0.867651
v 0.345264 6.592142 -0.817656
v 0.329469 6.543531 -0.867651
v -0.116265 6.640650 -0.817656
v -0.110923 6.589818 -0.867651
v -0.557624 6.497245 -0.817656
v -0.532068 6.452981 -0.867651
v -0.902496 6.186720 -0.817656
v -0.861146 6.156678 -0.867651
v -1.091251 5.762770 -0.817656
v -1.041256 5.752143 -0.867651
v -1.091251 5.298698 -0.817656
v -1.041256 5.309325 -0.867651
v -0.902496 4.874748 -0.817656
v -0.861146 4.904791 -0.867651
v -0.557624 4.564224 -0.817656
v -0.532068 4.608488 -0.867651
v -0.116266 4.420818 -0.817656
v -0.110923 4.471650 -0.867651
v 0.345264 4.469326 -0.817656
v 0.329469 4.517936 -0.867651
v 0.747161 4.701362 -0.817656
v 0.712961 4.739346 -0.867651
v 1.019936 5.076804 -0.817656
v 0.973243 5.097593 -0.867651
v 1.116422 5.530734 -0.817656
v 1.065310 5.530734 -0.867651
v 1.019936 5.984664 0.817600
v 0.973242 5.963875 0.867595
v 0.747161 6.360106 0.817600
v 0.712961 6.322122 0.867595
v 0.345264 6.592142 0.817600
v 0.329469 6.543531 0.867595
v -0.116265 6.640650 0.817600
v -0.110923 6.589818 0.867595
v -0.557624 6.497245 0.817600
v -0.532068 6.452981 0.867595
v -0.902496 6.186720 0.817600
v -0.861146 6.156678 0.867595
v -1.091251 5.762770 0.817600
v -1.041256 5.752143 0.867595
v -1.091251 5.298698 0.817600
v -1.041256 5.309325 0.867595
v -0.902496 4.874748 0.817600
v -0.861146 4.904791 0.867595
v -0.557624 4.564224 0.817600
v -0.532068 4.608488 0.867595
v -0.116266 4.420818 0.817600
v -0.110923 4.471650 0.867595
v 0.345264 4.469326 0.817600
v 0.329469 4.517936 0.867595
v 0.747161 4.701362 0.817600
v 0.712961 4.739346 0.867595
v 1.019936 5.076804 0.817600
v 0.973243 5.097593 0.867595
v 1.116422 5.530734 0.817600
v 1.065310 5.530734 0.867595
v 0.405633 3.376223 -0.702588
v -0.405614 3.376223 -0.702588
v -0.811238 3.376223 -0.000028
v -0.405615 3.376223 0.702532
v 0.405632 3.376223 0.702532
v 0.811256 3.376223 -0.000028
v 0.405633 4.786088 -0.702588
v -0.405614 4.786088 -0.702588
v -0.811238 4.786088 -0.000028
v -0.405615 4.786088 0.702532
v 0.405632 4.786088 0.702532
v 0.811256 4.786088 -0.000028
v 0.000009 3.376223 -0.000028
v 0.000009 4.786088 -0.000028
v 0.405633 3.376223 -0.702588
v -0.405614 3.376223 -0.702588
v -0.811238 3.376223 -0.000028
v -0.405615 3.376223 0.702532
v 0.405632 3.376223 0.702532
v 0.811256 3.376223 -0.000028
v 1.791688 1.662276 -0.797734
v 1.312333 1.662276 -1.457511
v 0.606065 1.662276 -1.865275
v -0.204996 1.662276 -1.950521
v -0.980609 1.662276 -1.698509
v -1.586665 1.662276 -1.152814
v -1.918370 1.662276 -0.407792
v -1.918370 1.662276 0.407736
v -1.586665 1.662276 1.152758
v -0.980610 1.662276 1.698453
v -0.204996 1.662276 1.950465
v 0.606064 1.662276 1.865219
v 1.312333 1.662276 1.457455
v 1.791688 1.662276 0.797679
v 1.961246 1.662276 -0.000028
v 0.000009 3.378039 -0.000028
v 1.791688 3.328044 -0.797734
v 1.744995 3.378039 -0.776945
v 1.312333 3.328044 -1.457511
v 1.278132 3.378039 -1.419527
v 0.606065 3.328043 -1.865275
v 0.590270 3.378038 -1.816664
v -0.204996 3.328043 -1.950521
v -0.199653 3.378038 -1.899689
v -0.980609 3.328043 -1.698509
v -0.955053 3.378038 -1.654245
v -1.586665 3.328044 -1.152814
v -1.545314 3.378039 -1.122771
v -1.918370 3.328044 -0.407792
v -1.868375 3.378039 -0.397165
v -1.918370 3.328044 0.407736
v -1.868375 3.378039 0.397109
v -1.586665 3.328044 1.152758
v -1.545315 3.378039 1.122715
v -0.980610 3.328044 1.698453
v -0.955054 3.378039 1.654189
v -0.204996 3.328044 1.950465
v -0.199654 3.378039 1.899633
v 0.606064 3.328044 1.865219
v 0.590270 3.378039 1.816609
v 1.312333 3.328044 1.457455
v 1.278132 3.378039 1.419472
v 1.791688 3.328044 0.797679
v 1.744995 3.378039 0.776890
v 1.961246 3.328044 -0.000028
v 1.910134 3.378039 -0.000028
v 0.606064 1.662276 1.865219
v 1.791688 0.000014 -0.797734
v 1.312333 0.000014 -1.457510
v 0.606065 0.000014 -1.865275
v -0.204996 0.000014 -1.950521
v -0.980609 0.000014 -1.698509
v -1.586665 0.000014 -1.152814
v -1.918370 0.000014 -0.407792
v -1.918370 0.000014 0.407736
v -1.586665 0.000014 1.152758
v -0.980610 0.000014 1.698454
v -0.204996 0.000014 1.950466
v 0.606064 0.000014 1.865219
v 1.312333 0.000014 1.457456
v 1.791688 0.000014 0.797679
v 1.961246 0.000014 -0.000028
v 0.000009 0.000014 -0.000028
vn 0.7329 0.3263 -0.5970
vn 0.5291 0.2356 -0.8152
vn 0.3875 0.4304 -0.8152
vn 0.5368 0.5962 -0.5970
vn 0.8022 -0.0000 -0.5970
vn 0.5792 -0.0000 -0.8152
vn 0.1790 0.5508 -0.8152
vn 0.2479 0.7629 -0.5970
vn -0.0605 0.5760 -0.8152
vn -0.0838 0.7978 -0.5970
vn -0.2896 0.5016 -0.8152
vn -0.4011 0.6947 -0.5970
vn -0.4686 0.3404 -0.8152
vn -0.6490 0.4715 -0.5970
vn -0.5665 0.1204 -0.8152
vn -0.7847 0.1668 -0.5970
vn -0.5665 -0.1204 -0.8152
vn -0.7847 -0.1668 -0.5970
vn -0.4686 -0.3404 -0.8152
vn -0.6490 -0.4715 -0.5970
vn -0.2896 -0.5016 -0.8152
vn -0.4011 -0.6947 -0.5970
vn -0.0605 -0.5760 -0.8152
vn -0.0839 -0.7978 -0.5970
vn 0.1790 -0.5508 -0.8152
vn 0.2479 -0.7630 -0.5970
vn 0.3875 -0.4304 -0.8152
vn 0.5368 -0.5962 -0.5970
vn 0.5291 -0.2356 -0.8152
vn 0.7329 -0.3263 -0.5970
vn 0.7329 0.3263 0.5970
vn 0.5291 0.2356 0.8152
vn 0.5792 -0.0000 0.8152
vn 0.8022 -0.0000 0.5970
vn 0.5368 0.5962 0.5970
vn 0.3875 0.4304 0.8152
vn 0.2479 0.7630 0.5970
vn 0.1790 0.5508 0.8152
vn -0.0839 0.7978 0.5970
vn -0.0605 0.5760 0.8152
vn -0.4011 0.6947 0.5970
vn -0.2896 0.5016 0.8152
vn -0.6490 0.4715 0.5970
vn -0.4686 0.3404 0.8152
vn -0.7847 0.1668 0.5970
vn -0.5665 0.1204 0.8152
vn -0.7847 -0.1668 0.5970
vn -0.5665 -0.1204 0.8152
vn -0.6490 -0.4715 0.5970
vn -0.4686 -0.3404 0.8152
vn -0.4011 -0.6947 0.5970
vn -0.2896 -0.5016 0.8152
vn -0.0838 -0.7978 0.5970
vn -0.0605 -0.5760 0.8152
vn 0.2479 -0.7629 0.5970
vn 0.1790 -0.5508 0.8152
vn 0.5368 -0.5962 0.5970
vn 0.3875 -0.4304 0.8152
vn 0.7329 -0.3263 0.5970
vn 0.5291 -0.2356 0.8152
vn 0.8899 0.3962 -0.2260
vn 0.6518 0.7239 -0.2260
vn 0.6518 0.7239 0.2260
vn 0.8899 0.3962 0.2260
vn 0.3011 0.9264 -0.2260
vn 0.3010 0.9265 0.2260
vn -0.1018 0.9688 -0.2260
vn -0.1019 0.9688 0.2260
vn -0.4871 0.8436 -0.2260
vn -0.4870 0.8436 0.2260
vn -0.7881 0.5726 -0.2260
vn -0.7881 0.5726 0.2260
vn -0.9528 0.2025 -0.2260
vn -0.9528 0.2025 0.2260
vn -0.9528 -0.2025 -0.2260
vn -0.9528 -0.2025 0.2260
vn -0.7881 -0.5726 -0.2260
vn -0.7881 -0.5726 0.2260
vn -0.4871 -0.8436 -0.2260
vn -0.4870 -0.8436 0.2260
vn -0.1018 -0.9688 -0.2260
vn -0.1018 -0.9688 0.2260
vn 0.3010 -0.9264 -0.2260
vn 0.3010 -0.9264 0.2260
vn 0.6518 -0.7239 -0.2260
vn 0.6518 -0.7239 0.2260
vn 0.8899 -0.3962 -0.2260
vn 0.8899 -0.3962 0.2260
vn 0.9741 -0.0000 -0.2260
vn 0.9741 -0.0000 0.2260
vn -0.0000 -0.0000 -1.0000
vn -0.0000 -0.0000 1.0000
vn -0.8660 -0.0000 -0.5000
vn -0.8660 -0.0000 0.5000
vn 0.8660 -0.0000 0.5000
vn 0.8660 -0.0000 -0.5000
vn -0.0000 -1.0000 -0.0000
vn -0.0000 1.0000 -0.0000
vn 0.0907 -0.0000 0.9959
vn -0.1019 -0.2215 0.9698
vn -0.1018 -0.2260 0.9688
vn 0.3010 -0.2260 0.9264
vn -0.9191 -0.0000 0.3940
vn -0.9539 -0.2215 0.2027
vn -0.9528 -0.2260 0.2025
vn -0.7881 -0.2260 0.5726
vn -0.9539 -0.2215 -0.2027
vn -0.9528 -0.2260 -0.2026
vn 0.9752 -0.0000 0.2215
vn 0.8909 -0.2215 0.3966
vn 0.8899 -0.2260 0.3962
vn 0.9741 -0.2260 -0.0000
vn 0.1184 -0.0000 -0.9930
vn 0.3013 -0.2215 -0.9274
vn 0.3011 -0.2260 -0.9264
vn -0.1018 -0.2260 -0.9688
vn 0.6525 -0.2215 0.7247
vn 0.6518 -0.2260 0.7239
vn -0.7889 -0.2215 -0.5732
vn -0.7881 -0.2260 -0.5726
vn 0.9809 -0.0000 -0.1943
vn 0.8899 -0.2260 -0.3962
vn -0.4876 -0.2215 0.8445
vn -0.4871 -0.2260 0.8436
vn -0.4876 -0.2215 -0.8445
vn -0.4871 -0.2260 -0.8436
vn 0.6525 -0.2215 -0.7247
vn 0.6518 -0.2260 -0.7239
vn 0.7329 0.5970 -0.3263
vn 0.5291 0.8152 -0.2356
vn 0.5792 0.8152 -0.0000
vn 0.8022 0.5970 -0.0000
vn 0.5368 0.5970 -0.5962
vn 0.3875 0.8152 -0.4304
vn 0.2479 0.5970 -0.7629
vn 0.1790 0.8152 -0.5508
vn -0.0839 0.5970 -0.7978
vn -0.0605 0.8152 -0.5760
vn -0.4011 0.5970 -0.6947
vn -0.2896 0.8152 -0.5016
vn -0.6490 0.5970 -0.4715
vn -0.4686 0.8152 -0.3404
vn -0.7847 0.5970 -0.1668
vn -0.5665 0.8152 -0.1204
vn -0.7847 0.5970 0.1668
vn -0.5665 0.8152 0.1204
vn -0.6490 0.5970 0.4715
vn -0.4686 0.8152 0.3404
vn -0.4011 0.5970 0.6947
vn -0.2896 0.8152 0.5016
vn -0.0838 0.5970 0.7978
vn -0.0605 0.8152 0.5760
vn 0.2479 0.5970 0.7629
vn 0.1790 0.8152 0.5508
vn 0.5368 0.5970 0.5962
vn 0.3875 0.8152 0.4304
vn 0.7329 0.5970 0.3263
vn 0.5291 0.8152 0.2356
vn 0.6518 0.2260 -0.7239
vn 0.8899 0.2260 -0.3962
vn 0.3010 0.2260 -0.9265
vn -0.1018 0.2260 -0.9688
vn -0.4870 0.2260 -0.8436
vn -0.7881 0.2260 -0.5726
vn -0.9528 0.2260 -0.2025
vn -0.9528 0.2260 0.2025
vn -0.7881 0.2260 0.5726
vn -0.4871 0.2260 0.8436
vn -0.1018 0.2260 0.9688
vn 0.3010 0.2260 0.9264
vn 0.6518 0.2260 0.7239
vn 0.8899 0.2260 0.3962
vn 0.9741 0.2260 -0.0000
vt 0.375000 0.323332
vt 0.375382 0.312500
vt 0.391285 0.312500
vt 0.391667 0.323331
vt 0.624618 0.312500
vt 0.625000 0.323331
vt 0.608333 0.323331
vt 0.608715 0.312500
vt 0.392048 0.312500
vt 0.407952 0.312500
vt 0.408333 0.323331
vt 0.408715 0.312500
vt 0.424618 0.312500
vt 0.425000 0.323332
vt 0.425382 0.312500
vt 0.441285 0.312500
vt 0.441667 0.323331
vt 0.442048 0.312500
vt 0.457952 0.312500
vt 0.458333 0.323331
vt 0.458715 0.312500
vt 0.474618 0.312500
vt 0.475000 0.323332
vt 0.475382 0.312500
vt 0.491285 0.312500
vt 0.491667 0.323331
vt 0.492048 0.312500
vt 0.507952 0.312500
vt 0.508333 0.323331
vt 0.508715 0.312500
vt 0.524618 0.312500
vt 0.525000 0.323332
vt 0.525382 0.312500
vt 0.541285 0.312500
vt 0.541667 0.323331
vt 0.542048 0.312500
vt 0.557952 0.312500
vt 0.558333 0.323331
vt 0.558715 0.312500
vt 0.574618 0.312500
vt 0.575000 0.323332
vt 0.575382 0.312500
vt 0.591285 0.312500
vt 0.591667 0.323332
vt 0.592048 0.312500
vt 0.607952 0.312500
vt 0.625000 0.677608
vt 0.624618 0.688440
vt 0.608715 0.688440
vt 0.608333 0.677608
vt 0.375382 0.688440
vt 0.375000 0.677608
vt 0.391667 0.677608
vt 0.391285 0.688440
vt 0.392048 0.688440
vt 0.408333 0.677608
vt 0.407952 0.688440
vt 0.408715 0.688440
vt 0.425000 0.677608
vt 0.424618 0.688440
vt 0.425382 0.688440
vt 0.441667 0.677608
vt 0.441285 0.688440
vt 0.442048 0.688440
vt 0.458333 0.677608
vt 0.457952 0.688440
vt 0.458715 0.688440
vt 0.475000 0.677608
vt 0.474618 0.688440
vt 0.475382 0.688440
vt 0.491667 0.677608
vt 0.491285 0.688440
vt 0.492048 0.688440
vt 0.508333 0.677608
vt 0.507952 0.688440
vt 0.508715 0.688440
vt 0.525000 0.677608
vt 0.524618 0.688440
vt 0.525382 0.688440
vt 0.541667 0.677608
vt 0.541285 0.688440
vt 0.542048 0.688440
vt 0.558333 0.677608
vt 0.557952 0.688440
vt 0.558715 0.688440
vt 0.575000 0.677608
vt 0.574618 0.688440
vt 0.575382 0.688440
vt 0.591667 0.677608
vt 0.591285 0.688440
vt 0.592048 0.688440
vt 0.607952 0.688440
vt 0.599763 0.045165
vt 0.636204 0.095322
vt 0.500000 0.150000
vt 0.546073 0.014167
vt 0.484416 0.007686
vt 0.425453 0.026845
vt 0.379380 0.068328
vt 0.354164 0.124965
vt 0.354164 0.186962
vt 0.379380 0.243599
vt 0.425453 0.285083
vt 0.484415 0.304241
vt 0.546073 0.297761
vt 0.599763 0.266762
vt 0.636204 0.216606
vt 0.649094 0.155964
vt 0.636204 0.904106
vt 0.599763 0.954262
vt 0.500000 0.837500
vt 0.546073 0.985261
vt 0.484415 0.991741
vt 0.425453 0.972583
vt 0.379380 0.931099
vt 0.354164 0.874462
vt 0.354164 0.812465
vt 0.379380 0.755828
vt 0.425453 0.714345
vt 0.484415 0.695186
vt 0.546073 0.701667
vt 0.599763 0.732665
vt 0.636204 0.782822
vt 0.649094 0.843464
vt 0.375000 0.312500
vt 0.416667 0.312500
vt 0.416667 0.688440
vt 0.375000 0.688440
vt 0.458333 0.312500
vt 0.458333 0.688440
vt 0.500000 0.312500
vt 0.500000 0.688440
vt 0.541667 0.312500
vt 0.541667 0.688440
vt 0.583333 0.312500
vt 0.583333 0.688440
vt 0.625000 0.312500
vt 0.625000 0.688440
vt 0.421875 0.020934
vt 0.578125 0.020934
vt 0.343750 0.156250
vt 0.421875 0.291566
vt 0.578125 0.291566
vt 0.656250 0.156250
vt 0.578125 0.979066
vt 0.421875 0.979066
vt 0.343750 0.843750
vt 0.421875 0.708434
vt 0.578125 0.708434
vt 0.656250 0.843750
vt 0.558333 0.312500
vt 0.508333 0.312500
vt 0.491667 0.312500
vt 0.475000 0.312500
vt 0.608333 0.312500
vt 0.591667 0.312500
vt 0.425000 0.312500
vt 0.408333 0.312500
vt 0.575000 0.312500
vt 0.525000 0.312500
vt 0.441667 0.312500
vt 0.391667 0.312500
vt 0.625000 0.677485
vt 0.624783 0.688440
vt 0.608551 0.688440
vt 0.608333 0.677485
vt 0.375217 0.688440
vt 0.375000 0.677485
vt 0.391667 0.677485
vt 0.391450 0.688440
vt 0.391884 0.688440
vt 0.408333 0.677485
vt 0.408116 0.688440
vt 0.408551 0.688440
vt 0.425000 0.677485
vt 0.424783 0.688440
vt 0.425217 0.688440
vt 0.441667 0.677485
vt 0.441450 0.688440
vt 0.441884 0.688440
vt 0.458333 0.677485
vt 0.458116 0.688440
vt 0.458551 0.688440
vt 0.475000 0.677485
vt 0.474783 0.688440
vt 0.475217 0.688440
vt 0.491667 0.677485
vt 0.491450 0.688440
vt 0.491884 0.688440
vt 0.508333 0.677485
vt 0.508116 0.688440
vt 0.508551 0.688440
vt 0.525000 0.677485
vt 0.524783 0.688440
vt 0.525217 0.688440
vt 0.541667 0.677485
vt 0.541450 0.688440
vt 0.541884 0.688440
vt 0.558333 0.677485
vt 0.558116 0.688440
vt 0.558551 0.688440
vt 0.575000 0.677485
vt 0.574783 0.688440
vt 0.575217 0.688440
vt 0.591667 0.677485
vt 0.591450 0.688440
vt 0.591884 0.688440
vt 0.608116 0.688440
vt 0.639021 0.905483
vt 0.601827 0.956677
vt 0.547026 0.988317
vt 0.484093 0.994931
vt 0.423911 0.975377
vt 0.376885 0.933035
vt 0.351148 0.875227
vt 0.351148 0.811948
vt 0.376886 0.754139
vt 0.423911 0.711797
vt 0.484093 0.692243
vt 0.547026 0.698857
vt 0.601827 0.730497
vt 0.639021 0.781691
vt 0.652178 0.843587
vt 0.604552 0.040134
vt 0.642741 0.092697
vt 0.548284 0.007647
vt 0.483667 0.000856
vt 0.373591 0.064409
vt 0.347164 0.123764
vt 0.347164 0.188736
vt 0.373591 0.248091
vt 0.483667 0.311644
vt 0.548284 0.304853
vt 0.604552 0.272366
vt 0.642741 0.219803
s 1
usemtl initialShadingGroup
f 3/1/1 4/2/2 6/3/3 5/4/4
f 4/5/2 3/6/1 31/7/5 32/8/6
f 5/4/4 6/9/3 8/10/7 7/11/8
f 7/11/8 8/12/7 10/13/9 9/14/10
f 9/14/10 10/15/9 12/16/11 11/17/12
f 11/17/12 12/18/11 14/19/13 13/20/14
f 13/20/14 14/21/13 16/22/15 15/23/16
f 15/23/16 16/24/15 18/25/17 17/26/18
f 17/26/18 18/27/17 20/28/19 19/29/20
f 19/29/20 20/30/19 22/31/21 21/32/22
f 21/32/22 22/33/21 24/34/23 23/35/24
f 23/35/24 24/36/23 26/37/25 25/38/26
f 25/38/26 26/39/25 28/40/27 27/41/28
f 27/41/28 28/42/27 30/43/29 29/44/30
f 29/44/30 30/45/29 32/46/6 31/7/5
f 33/47/31 34/48/32 62/49/33 61/50/34
f 34/51/32 33/52/31 35/53/35 36/54/36
f 36/55/36 35/53/35 37/56/37 38/57/38
f 38/58/38 37/56/37 39/59/39 40/60/40
f 40/61/40 39/59/39 41/62/41 42/63/42
f 42/64/42 41/62/41 43/65/43 44/66/44
f 44/67/44 43/65/43 45/68/45 46/69/46
f 46/70/46 45/68/45 47/71/47 48/72/48
f 48/73/48 47/71/47 49/74/49 50/75/50
f 50/76/50 49/74/49 51/77/51 52/78/52
f 52/79/52 51/77/51 53/80/53 54/81/54
f 54/82/54 53/80/53 55/83/55 56/84/56
f 56/85/56 55/83/55 57/86/57 58/87/58
f 58/88/58 57/86/57 59/89/59 60/90/60
f 60/91/60 59/89/59 61/50/34 62/92/33
f 3/1/61 5/4/62 35/53/63 33/52/64
f 5/4/62 7/11/65 37/56/66 35/53/63
f 7/11/65 9/14/67 39/59/68 37/56/66
f 9/14/67 11/17/69 41/62/70 39/59/68
f 11/17/69 13/20/71 43/65/72 41/62/70
f 13/20/71 15/23/73 45/68/74 43/65/72
f 15/23/73 17/26/75 47/71/76 45/68/74
f 17/26/75 19/29/77 49/74/78 47/71/76
f 19/29/77 21/32/79 51/77/80 49/74/78
f 21/32/79 23/35/81 53/80/82 51/77/80
f 23/35/81 25/38/83 55/83/84 53/80/82
f 25/38/83 27/41/85 57/86/86 55/83/84
f 27/41/85 29/44/87 59/89/88 57/86/86
f 29/44/87 31/7/89 61/50/90 59/89/88
f 31/7/89 3/6/61 33/47/64 61/50/90
f 6/93/91 4/94/91 1/95/91
f 8/96/91 6/93/91 1/95/91
f 10/97/91 8/96/91 1/95/91
f 12/98/91 10/97/91 1/95/91
f 14/99/91 12/98/91 1/95/91
f 16/100/91 14/99/91 1/95/91
f 18/101/91 16/100/91 1/95/91
f 20/102/91 18/101/91 1/95/91
f 22/103/91 20/102/91 1/95/91
f 24/104/91 22/103/91 1/95/91
f 26/105/91 24/104/91 1/95/91
f 28/106/91 26/105/91 1/95/91
f 30/107/91 28/106/91 1/95/91
f 32/108/91 30/107/91 1/95/91
f 4/94/91 32/108/91 1/95/91
f 34/109/92 36/110/92 2/111/92
f 36/110/92 38/112/92 2/111/92
f 38/112/92 40/113/92 2/111/92
f 40/113/92 42/114/92 2/111/92
f 42/114/92 44/115/92 2/111/92
f 44/115/92 46/116/92 2/111/92
f 46/116/92 48/117/92 2/111/92
f 48/117/92 50/118/92 2/111/92
f 50/118/92 52/119/92 2/111/92
f 52/119/92 54/120/92 2/111/92
f 54/120/92 56/121/92 2/111/92
f 56/121/92 58/122/92 2/111/92
f 58/122/92 60/123/92 2/111/92
f 60/123/92 62/124/92 2/111/92
f 62/124/92 34/109/92 2/111/92
f 63/125/91 64/126/91 70/127/91 69/128/91
f 64/126/93 65/129/93 71/130/93 70/127/93
f 65/129/94 66/131/94 72/132/94 71/130/94
f 66/131/92 67/133/92 73/134/92 72/132/92
f 67/133/95 68/135/95 74/136/95 73/134/95
f 68/135/96 63/137/96 69/138/96 74/136/96
f 64/139/97 63/140/97 75/95/97
f 65/141/97 64/139/97 75/95/97
f 66/142/97 65/141/97 75/95/97
f 67/143/97 66/142/97 75/95/97
f 68/144/97 67/143/97 75/95/97
f 63/140/97 68/144/97 75/95/97
f 69/145/98 70/146/98 76/111/98
f 70/146/98 71/147/98 76/111/98
f 71/147/98 72/148/98 76/111/98
f 72/148/98 73/149/98 76/111/98
f 73/149/98 74/150/98 76/111/98
f 74/150/98 69/145/98 76/111/98
f 94/151/99 93/133/100 140/133/101 141/151/102
f 91/152/103 90/153/104 137/153/105 138/152/106
f 90/153/104 89/154/107 136/154/108 137/153/105
f 97/155/109 96/156/110 143/156/111 144/155/112
f 86/157/113 85/158/114 132/158/115 133/157/116
f 96/156/110 95/159/117 142/159/118 143/156/111
f 89/154/107 88/129/119 135/129/120 136/154/108
f 83/137/121 97/155/109 144/155/112 130/137/122
f 93/133/100 92/160/123 139/160/124 140/133/101
f 88/129/119 87/161/125 134/161/126 135/129/120
f 85/158/114 84/162/127 131/162/128 132/158/115
f 92/160/123 91/152/103 138/152/106 139/160/124
f 95/159/117 94/151/99 141/151/102 142/159/118
f 84/162/127 83/125/121 130/125/122 131/162/128
f 87/161/125 86/157/113 133/157/116 134/161/126
f 99/163/129 100/164/130 128/165/131 127/166/132
f 100/167/130 99/168/129 101/169/133 102/170/134
f 102/171/134 101/169/133 103/172/135 104/173/136
f 104/174/136 103/172/135 105/175/137 106/176/138
f 106/177/138 105/175/137 107/178/139 108/179/140
f 108/180/140 107/178/139 109/181/141 110/182/142
f 110/183/142 109/181/141 111/184/143 112/185/144
f 112/186/144 111/184/143 113/187/145 114/188/146
f 114/189/146 113/187/145 115/190/147 116/191/148
f 116/192/148 115/190/147 117/193/149 118/194/150
f 118/195/150 117/193/149 119/196/151 120/197/152
f 120/198/152 119/196/151 121/199/153 122/200/154
f 122/201/154 121/199/153 123/202/155 124/203/156
f 124/204/156 123/202/155 125/205/157 126/206/158
f 126/207/158 125/205/157 127/166/132 128/208/131
f 83/125/121 84/162/127 101/169/159 99/168/160
f 84/162/127 85/158/114 103/172/161 101/169/159
f 85/158/114 86/157/113 105/175/162 103/172/161
f 86/157/113 87/161/125 107/178/163 105/175/162
f 87/161/125 88/129/119 109/181/164 107/178/163
f 88/129/119 89/154/107 111/184/165 109/181/164
f 89/154/107 90/153/104 113/187/166 111/184/165
f 90/153/104 91/152/103 115/190/167 113/187/166
f 91/152/103 92/160/123 117/193/168 115/190/167
f 92/160/123 93/133/100 119/196/169 117/193/168
f 93/133/100 94/151/99 121/199/170 119/196/169
f 94/151/99 95/159/117 123/202/171 121/199/170
f 95/159/117 96/156/110 125/205/172 123/202/171
f 96/156/110 97/155/109 127/166/173 125/205/172
f 97/155/109 83/137/121 99/163/160 127/166/173
f 100/209/98 102/210/98 98/111/98
f 102/210/98 104/211/98 98/111/98
f 104/211/98 106/212/98 98/111/98
f 106/212/98 108/213/98 98/111/98
f 108/213/98 110/214/98 98/111/98
f 110/214/98 112/215/98 98/111/98
f 112/215/98 114/216/98 98/111/98
f 114/216/98 116/217/98 98/111/98
f 116/217/98 118/218/98 98/111/98
f 118/218/98 120/219/98 98/111/98
f 120/219/98 122/220/98 98/111/98
f 122/220/98 124/221/98 98/111/98
f 124/221/98 126/222/98 98/111/98
f 126/222/98 128/223/98 98/111/98
f 128/223/98 100/209/98 98/111/98
f 131/224/97 130/225/97 145/95/97
f 132/226/97 131/224/97 145/95/97
f 133/227/97 132/226/97 145/95/97
f 134/139/97 133/227/97 145/95/97
f 135/228/97 134/139/97 145/95/97
f 136/229/97 135/228/97 145/95/97
f 137/230/97 136/229/97 145/95/97
f 138/231/97 137/230/97 145/95/97
f 139/142/97 138/231/97 145/95/97
f 140/232/97 139/142/97 145/95/97
f 141/233/97 140/232/97 145/95/97
f 142/234/97 141/233/97 145/95/97
f 143/235/97 142/234/97 145/95/97
f 144/144/97 143/235/97 145/95/97
f 130/225/97 144/144/97 145/95/97
l 77 78
l 77 82
l 78 79
l 79 80
l 80 81
l 81 82
l 94 129
