# Blender 4.1.0
# www.blender.org
mtllib box.mtl
o defaultMaterial
v -1.074210 -0.001658 1.036820
v -1.072120 0.001648 1.064580
v -1.074210 0.020304 1.036820
v -1.072120 0.023610 1.064580
v -1.072620 0.023610 -1.105060
v -1.072120 0.023610 -1.131600
v -1.072620 0.001648 -1.105060
v -1.072120 0.001648 -1.131600
v 1.065640 0.001648 1.036820
v 1.090260 0.001648 1.036820
v 1.065640 0.023610 1.036810
v 1.090260 0.023610 1.036820
v -1.074210 -0.001658 1.036820
v -1.074210 0.020304 1.036820
v -1.105920 0.001648 1.036820
v -1.105920 0.023610 1.036820
v -1.072120 0.023610 -1.131600
v 1.065640 0.023610 -1.131600
v -1.072120 0.001648 -1.131600
v 1.065640 0.001648 -1.131600
v -1.074210 -0.001658 1.036820
v 1.065640 0.001648 1.036820
v -1.072120 0.001648 1.064580
v 1.065640 0.001648 1.064580
v -1.072120 0.023610 1.064580
v -1.072120 0.001648 1.064580
v 1.065640 0.023610 1.064580
v 1.065640 0.001648 1.064580
v 1.065640 1.769581 1.036820
v -1.072120 1.769581 1.036820
v 1.065640 1.769581 1.064580
v -1.072120 1.769581 1.064580
v 1.065640 0.023610 -1.131600
v 1.065770 0.023610 -1.104910
v 1.065640 0.001648 -1.131600
v 1.065770 0.001648 -1.104910
v 1.065640 0.023610 1.064580
v 1.065640 0.001648 1.064580
v 1.065640 0.023610 1.036810
v 1.065640 0.001648 1.036820
v -1.072620 0.001648 -1.105060
v -1.105920 0.001648 -1.104790
v -1.072620 0.023610 -1.105060
v -1.105920 0.023610 -1.104790
v 1.065770 0.001648 -1.104910
v -1.072620 0.001648 -1.105060
v 1.065640 0.001648 -1.131600
v -1.072120 0.001648 -1.131600
v 1.090260 0.023610 -1.104790
v 1.090260 0.001648 -1.104790
v 1.065770 0.023610 -1.104910
v 1.065770 0.001648 -1.104910
v -1.072120 1.769581 -1.131600
v -1.072120 1.769581 -1.104790
v 1.065640 1.769581 -1.131600
v 1.065640 1.769581 -1.104790
v -1.105920 1.769581 1.036820
v -1.072120 1.769581 1.036820
v -1.105920 1.769581 -1.104790
v -1.072120 1.769581 -1.104790
v -1.105920 0.001648 -1.104790
v -1.105920 0.001648 1.036820
v -1.105920 0.023610 -1.104790
v -1.105920 0.023610 1.036820
v -1.105920 0.001648 -1.104790
v -1.072620 0.001648 -1.105060
v -1.105920 0.001648 1.036820
v -1.074210 -0.001658 1.036820
v 1.065640 0.001648 1.036820
v -1.074210 -0.001658 1.036820
v 1.065770 0.001648 -1.104910
v -1.072620 0.001648 -1.105060
v 1.090260 0.001648 1.036820
v 1.065640 0.001648 1.036820
v 1.090260 0.001648 -1.104790
v 1.090260 0.023610 1.036820
v 1.090260 0.001648 1.036820
v 1.090260 0.023610 -1.104790
v 1.090260 0.001648 -1.104790
v 1.065640 1.769581 -1.104790
v 1.065640 1.769581 1.036820
v 1.090260 1.769581 -1.104790
v 1.090260 1.769581 1.036820
v 1.065770 0.023610 -1.104910
v -1.072620 0.023610 -1.105060
v 1.065640 0.023610 1.036810
v -1.074210 0.020304 1.036820
v -1.074210 0.020304 1.036820
v -1.072120 1.753143 1.036820
v 1.065640 0.023610 1.036810
v 1.064210 1.753151 1.035390
v -1.074210 0.020304 1.036820
v -1.072120 0.023610 1.064580
v -1.072120 1.753143 1.036820
v -1.072120 1.753143 1.064580
v -1.072120 1.753143 1.064580
v 1.065640 1.753143 1.064580
v 1.065640 0.023610 1.064580
v 1.065640 0.023610 1.036810
v 1.065640 1.753143 1.064580
v 1.064210 1.753151 1.035390
v -1.072120 0.023610 -1.131600
v -1.072620 0.023610 -1.105060
v -1.072120 1.753225 -1.131600
v -1.072120 1.753278 -1.104790
v -1.072620 0.023610 -1.105060
v 1.065770 0.023610 -1.104910
v -1.072120 1.753278 -1.104790
v 1.065640 1.753194 -1.104790
v 1.065770 0.023610 -1.104910
v 1.065640 0.023610 -1.131600
v 1.065640 1.753194 -1.104790
v 1.065640 1.753225 -1.131600
v 1.065640 1.753225 -1.131600
v -1.072120 1.753225 -1.131600
v -1.061630 1.753331 1.036820
v -1.105920 1.753331 1.036820
v -1.074210 0.020304 1.036820
v -1.072620 0.023610 -1.105060
v -1.061630 1.753331 1.036820
v -1.072120 1.753278 -1.104790
v -1.072620 0.023610 -1.105060
v -1.105920 0.023610 -1.104790
v -1.072120 1.753278 -1.104790
v -1.105920 1.753331 -1.104790
v -1.105920 1.753331 -1.104790
v -1.105920 1.753331 1.036820
v 1.065770 0.023610 -1.104910
v 1.065640 0.023610 1.036810
v 1.065640 1.753194 -1.104790
v 1.064210 1.753151 1.035390
v 1.065640 0.023610 1.036810
v 1.090260 0.023610 1.036820
v 1.064210 1.753151 1.035390
v 1.090260 1.753164 1.036820
v 1.090260 1.753164 1.036820
v 1.090260 1.753164 -1.104790
v 1.090260 0.023610 -1.104790
v 1.065770 0.023610 -1.104910
v 1.090260 1.753164 -1.104790
v 1.065640 1.753194 -1.104790
v 1.065640 1.753194 -1.104790
v 1.065640 1.753225 -1.131600
v 1.065640 1.769581 -1.104790
v 1.065640 1.769581 -1.131600
v -1.072120 1.753278 -1.104790
v 1.065640 1.753194 -1.104790
v -1.072120 1.769581 -1.104790
v 1.065640 1.769581 -1.104790
v -1.072120 1.753225 -1.131600
v -1.072120 1.753278 -1.104790
v -1.072120 1.769581 -1.131600
v -1.072120 1.769581 -1.104790
v 1.065640 1.102545 -2.229701
v -1.072120 1.102545 -2.229701
v 1.065640 1.118897 -2.229701
v -1.072120 1.118897 -2.229701
v 2.188350 1.102484 1.036820
v 2.188350 1.102484 -1.104790
v 2.188350 1.118897 1.036820
v 2.188350 1.118897 -1.104790
v 1.064210 1.753151 1.035390
v 1.090260 1.753164 1.036820
v 1.065640 1.769581 1.036820
v 1.090260 1.769581 1.036820
v 1.065640 1.753194 -1.104790
v 1.064210 1.753151 1.035390
v 1.065640 1.769581 -1.104790
v 1.065640 1.769581 1.036820
v 1.090260 1.753164 -1.104790
v 1.065640 1.753194 -1.104790
v 1.090260 1.769581 -1.104790
v 1.065640 1.769581 -1.104790
v -1.072120 1.086112 2.162670
v 1.065640 1.086112 2.162670
v -1.072120 1.102545 2.162670
v 1.065640 1.102545 2.162670
v -1.072120 1.753143 1.036820
v -1.072120 1.753143 1.064580
v -1.072120 1.769581 1.036820
v -1.072120 1.769581 1.064580
v -1.072120 1.753143 1.036820
v -1.072120 1.769581 1.036820
v 1.064210 1.753151 1.035390
v 1.065640 1.769581 1.036820
v 1.064210 1.753151 1.035390
v 1.065640 1.769581 1.036820
v 1.065640 1.753143 1.064580
v 1.065640 1.769581 1.064580
v -2.204020 1.086299 -1.104790
v -2.204020 1.086299 1.036820
v -2.204020 1.102545 -1.104790
v -2.204020 1.102545 1.036820
v -1.072120 1.753278 -1.104790
v -1.105920 1.753331 -1.104790
v -1.072120 1.769581 -1.104790
v -1.105920 1.769581 -1.104790
v -1.061630 1.753331 1.036820
v -1.072120 1.753278 -1.104790
v -1.072120 1.769581 1.036820
v -1.072120 1.769581 -1.104790
v -1.072120 1.769581 1.036820
v -1.105920 1.769581 1.036820
v 1.065640 1.753225 -1.131600
v -1.072120 1.753225 -1.131600
v 1.065640 1.102545 -2.229701
v -1.072120 1.102545 -2.229701
v -1.072120 1.118897 -2.229701
v -1.072120 1.102545 -2.229701
v -1.072120 1.769581 -1.131600
v 1.065640 1.769581 -1.131600
v -1.072120 1.118897 -2.229701
v 1.065640 1.118897 -2.229701
v 1.065640 1.118897 -2.229701
v 1.065640 1.102545 -2.229701
v 1.090260 1.753164 1.036820
v 1.090260 1.753164 -1.104790
v 2.188350 1.102484 1.036820
v 2.188350 1.102484 -1.104790
v 2.188350 1.118897 -1.104790
v 2.188350 1.102484 -1.104790
v 1.090260 1.769581 -1.104790
v 1.090260 1.769581 1.036820
v 2.188350 1.118897 -1.104790
v 2.188350 1.118897 1.036820
v 1.090260 1.769581 1.036820
v 1.090260 1.753164 1.036820
v 2.188350 1.118897 1.036820
v 2.188350 1.102484 1.036820
v -1.072120 1.753143 1.064580
v 1.065640 1.753143 1.064580
v -1.072120 1.086112 2.162670
v 1.065640 1.086112 2.162670
v 1.065640 1.769581 1.064580
v 1.065640 1.102545 2.162670
v 1.065640 1.753143 1.064580
v 1.065640 1.086112 2.162670
v 1.065640 1.769581 1.064580
v -1.072120 1.769581 1.064580
v 1.065640 1.102545 2.162670
v -1.072120 1.102545 2.162670
v -1.072120 1.102545 2.162670
v -1.072120 1.086112 2.162670
v -1.105920 1.753331 -1.104790
v -1.105920 1.753331 1.036820
v -2.204020 1.086299 -1.104790
v -2.204020 1.086299 1.036820
v -2.204020 1.102545 1.036820
v -2.204020 1.086299 1.036820
v -1.105920 1.769581 1.036820
v -1.105920 1.769581 -1.104790
v -2.204020 1.102545 1.036820
v -2.204020 1.102545 -1.104790
v -2.204020 1.102545 -1.104790
v -2.204020 1.086299 -1.104790
vn -0.9972 -0.0000 0.0751
vn -0.9998 -0.0000 -0.0188
vn -0.0001 -0.0000 1.0000
vn -0.0002 0.0002 1.0000
vn 0.0001 0.0001 1.0000
vn -0.0000 -0.0000 1.0000
vn -0.0000 -0.0000 -1.0000
vn 0.0008 -0.9982 0.0594
vn -0.0000 -0.9982 0.0594
vn -0.0000 1.0000 -0.0000
vn 1.0000 -0.0000 -0.0049
vn 1.0000 -0.0000 -0.0000
vn -0.0081 -0.0000 -1.0000
vn -0.0000 -1.0000 -0.0000
vn 0.0046 -0.0000 -1.0000
vn 0.0049 -0.0000 -1.0000
vn -1.0000 -0.0000 -0.0000
vn -0.0508 -0.9987 -0.0008
vn 0.0009 -1.0000 -0.0007
vn 0.0008 -1.0000 -0.0008
vn 0.0007 -1.0000 -0.0009
vn -0.0007 1.0000 0.0007
vn -0.0008 1.0000 0.0008
vn -0.0003 -0.0004 -1.0000
vn -0.0005 -0.0006 -1.0000
vn -0.9993 0.0006 0.0376
vn -0.9993 0.0006 0.0375
vn 0.9997 0.0004 -0.0251
vn -1.0000 0.0001 -0.0094
vn -1.0000 0.0001 -0.0093
vn -1.0000 0.0003 -0.0093
vn -0.0001 -0.0002 1.0000
vn -0.0000 -0.0001 1.0000
vn 1.0000 -0.0000 -0.0025
vn 1.0000 -0.0000 -0.0024
vn 1.0000 -0.0038 -0.0021
vn 1.0000 -0.0036 -0.0022
vn 1.0000 -0.0040 -0.0019
vn -0.0039 0.0001 -1.0000
vn -1.0000 -0.0003 -0.0003
vn -1.0000 -0.0005 -0.0004
vn -0.0281 0.0004 0.9996
vn 0.0023 -0.0000 -1.0000
vn 0.0022 -0.0000 -1.0000
vn -0.0280 -0.0421 0.9987
vn -0.0280 -0.0420 0.9987
vn -0.9991 0.0435 -0.0003
vn -0.0007 0.0433 -0.9991
vn -0.0003 0.0433 -0.9991
vn 0.9988 -0.0424 -0.0251
vn 0.9988 -0.0423 -0.0251
vn 0.9517 0.3070 -0.0023
vn 0.9517 0.3069 -0.0000
vn 0.9517 0.3070 -0.0040
vn 0.9517 0.3069 -0.0023
vn -0.0000 -0.8603 0.5098
vn -0.0000 0.8603 -0.5098
vn -0.5098 -0.8603 -0.0000
vn 0.5098 0.8603 -0.0000
vn -0.0000 -0.8547 -0.5192
vn -0.0000 0.8547 0.5192
vn 0.5192 -0.8547 -0.0000
vn -0.5192 0.8547 -0.0000
vt 0.683739 0.357523
vt 0.686461 0.357199
vt 0.683739 0.355370
vt 0.686461 0.355046
vt 0.560546 0.355370
vt 0.557943 0.355370
vt 0.560546 0.357523
vt 0.557943 0.357523
vt 0.334618 0.352370
vt 0.337031 0.352370
vt 0.334618 0.350217
vt 0.337031 0.350217
vt 0.676927 0.357523
vt 0.676927 0.355370
vt 0.673817 0.357199
vt 0.673817 0.355045
vt 0.348771 0.355999
vt 0.348771 0.565605
vt 0.350925 0.355999
vt 0.350925 0.565605
vt 0.004921 0.785396
vt 0.214731 0.785396
vt 0.005125 0.782674
vt 0.214731 0.782674
vt 0.360305 0.361152
vt 0.358152 0.361152
vt 0.360305 0.570758
vt 0.358152 0.570758
vt 0.647508 0.570758
vt 0.647508 0.361152
vt 0.644786 0.570758
vt 0.644786 0.361152
vt 0.221232 0.350217
vt 0.218615 0.350217
vt 0.221232 0.352370
vt 0.218615 0.352370
vt 0.210164 0.350155
vt 0.210164 0.352309
vt 0.212886 0.350155
vt 0.212886 0.352309
vt 0.112743 0.001992
vt 0.109478 0.001992
vt 0.112743 0.004145
vt 0.109478 0.004145
vt 0.214744 0.995390
vt 0.005076 0.995405
vt 0.214731 0.998008
vt 0.005125 0.998008
vt 0.121351 0.004145
vt 0.121351 0.001992
vt 0.118950 0.004145
vt 0.118950 0.001992
vt 0.656697 0.361152
vt 0.654068 0.361152
vt 0.656697 0.570758
vt 0.654068 0.570758
vt 0.794053 0.998008
vt 0.797367 0.998008
vt 0.794053 0.788025
vt 0.797367 0.788025
vt 0.735622 0.574402
vt 0.735622 0.784385
vt 0.737775 0.574402
vt 0.737775 0.784385
vt 0.001811 0.995379
vt 0.001811 0.785396
vt 0.217145 0.785396
vt 0.217145 0.995379
vt 0.560463 0.574387
vt 0.558309 0.574387
vt 0.560463 0.784370
vt 0.558309 0.784370
vt 0.550318 0.574387
vt 0.550318 0.784370
vt 0.552731 0.574387
vt 0.552731 0.784370
vt 0.433306 0.788014
vt 0.223639 0.787999
vt 0.433294 0.998008
vt 0.223483 0.998008
vt 0.260824 0.569234
vt 0.090921 0.569439
vt 0.260500 0.779045
vt 0.090920 0.778905
vt 0.683739 0.185466
vt 0.686461 0.185466
vt 0.529884 0.361152
vt 0.529884 0.570758
vt 0.210164 0.180576
vt 0.213026 0.180575
vt 0.557943 0.185782
vt 0.560572 0.185777
vt 0.001811 0.355938
vt 0.001811 0.565605
vt 0.171404 0.355986
vt 0.171395 0.565592
vt 0.218604 0.180633
vt 0.221232 0.180630
vt 0.179184 0.565605
vt 0.179184 0.355999
vt 0.678160 0.185448
vt 0.673817 0.185448
vt 0.439662 0.787999
vt 0.439986 0.998008
vt 0.609583 0.787999
vt 0.609578 0.997982
vt 0.112792 0.173738
vt 0.109478 0.173743
vt 0.907373 0.574402
vt 0.907373 0.784385
vt 0.616857 0.788014
vt 0.616857 0.998008
vt 0.786441 0.788025
vt 0.786437 0.997868
vt 0.334477 0.180637
vt 0.337031 0.180636
vt 0.730044 0.574387
vt 0.730044 0.784370
vt 0.121351 0.173726
vt 0.118937 0.173730
vt 0.218604 0.179026
vt 0.221232 0.179026
vt 0.173002 0.355986
vt 0.173002 0.565592
vt 0.557943 0.184179
vt 0.560572 0.184179
vt 0.772621 0.570773
vt 0.772621 0.361167
vt 0.771017 0.570773
vt 0.771017 0.361167
vt 0.479331 0.574387
vt 0.479331 0.784370
vt 0.480941 0.574387
vt 0.480941 0.784370
vt 0.334618 0.179026
vt 0.337031 0.179026
vt 0.788048 0.788025
vt 0.788048 0.998008
vt 0.121351 0.175336
vt 0.118937 0.175336
vt 0.779877 0.361167
vt 0.779877 0.570773
vt 0.781489 0.361167
vt 0.781489 0.570773
vt 0.683739 0.183855
vt 0.686461 0.183855
vt 0.089309 0.569439
vt 0.089309 0.779045
vt 0.212886 0.178965
vt 0.210164 0.178965
vt 0.406759 0.574387
vt 0.406759 0.784370
vt 0.408351 0.574387
vt 0.408351 0.784370
vt 0.112792 0.175336
vt 0.109478 0.175336
vt 0.611176 0.787999
vt 0.611176 0.997982
vt 0.677131 0.183855
vt 0.673817 0.183855
vt 0.896404 0.570773
vt 0.896404 0.361167
vt 0.788737 0.570773
vt 0.788737 0.361167
vt 0.450276 0.247978
vt 0.450276 0.249581
vt 0.764364 0.361152
vt 0.764364 0.570758
vt 0.328899 0.242825
vt 0.328899 0.244428
vt 0.401181 0.784370
vt 0.401181 0.574387
vt 0.337382 0.784370
vt 0.337382 0.574387
vt 0.229018 0.111537
vt 0.229018 0.109928
vt 0.544739 0.784370
vt 0.544739 0.574387
vt 0.444698 0.242825
vt 0.444698 0.244434
vt 0.799706 0.147932
vt 0.799706 0.357538
vt 0.907373 0.147932
vt 0.907373 0.357538
vt 0.102497 0.244367
vt 0.102497 0.245978
vt 0.537119 0.570758
vt 0.537119 0.361152
vt 0.794128 0.249257
vt 0.794128 0.250868
vt 0.331804 0.784370
vt 0.331804 0.574387
vt 0.266402 0.784370
vt 0.266402 0.574387
vt 0.566150 0.249257
vt 0.566150 0.250850
vt 0.473753 0.784370
vt 0.473753 0.574387
vt 0.001811 0.109934
vt 0.001811 0.108341
s 0
usemtl lambert1
f 1/1/1 2/2/1 3/3/1
s 1
f 3/3/1 2/2/1 4/4/1
s 0
f 5/5/2 6/6/2 7/7/2
f 7/7/2 6/6/2 8/8/2
s 1
f 9/9/3 10/10/4 11/11/4
f 11/11/4 10/10/4 12/12/5
s 0
f 13/13/6 14/14/6 15/15/6
f 15/15/6 14/14/6 16/16/6
f 17/17/7 18/18/7 19/19/7
f 19/19/7 18/18/7 20/20/7
s 1
f 21/21/8 22/22/9 23/23/8
f 23/23/8 22/22/9 24/24/8
s 0
f 25/25/6 26/26/6 27/27/6
f 27/27/6 26/26/6 28/28/6
f 29/29/10 30/30/10 31/31/10
f 31/31/10 30/30/10 32/32/10
f 33/33/11 34/34/11 35/35/11
f 35/35/11 34/34/11 36/36/11
f 37/37/12 38/38/12 39/39/12
f 39/39/12 38/38/12 40/40/12
f 41/41/13 42/42/13 43/43/13
f 43/43/13 42/42/13 44/44/13
f 45/45/14 46/46/14 47/47/14
f 47/47/14 46/46/14 48/48/14
f 49/49/15 50/50/15 51/51/15
f 51/51/16 50/50/16 52/52/16
f 53/53/10 54/54/10 55/55/10
f 55/55/10 54/54/10 56/56/10
f 57/57/10 58/58/10 59/59/10
f 59/59/10 58/58/10 60/60/10
f 61/61/17 62/62/17 63/63/17
f 63/63/17 62/62/17 64/64/17
s 1
f 65/65/18 66/46/18 67/66/18
f 67/66/18 66/46/18 68/21/18
f 69/22/19 70/21/20 71/45/20
f 71/45/20 70/21/20 72/46/21
s 0
f 73/67/14 74/22/14 75/68/14
f 75/68/14 74/22/14 45/45/14
f 76/69/12 77/70/12 78/71/12
f 78/71/12 77/70/12 79/72/12
f 80/73/10 81/74/10 82/75/10
f 82/75/10 81/74/10 83/76/10
s 1
f 84/77/22 85/78/23 86/79/23
f 86/79/23 85/78/23 87/80/23
f 88/81/24 89/82/24 90/83/24
s 0
f 90/83/25 89/82/25 91/84/25
s 1
f 92/3/26 93/4/27 94/85/27
f 94/85/27 93/4/27 95/86/27
s 0
f 25/25/6 27/27/6 96/87/6
f 96/87/6 27/27/6 97/88/6
s 1
f 98/37/28 99/39/28 100/89/28
f 100/89/28 99/39/28 101/90/28
f 102/6/29 103/5/30 104/91/30
f 104/91/30 103/5/30 105/92/31
s 0
f 106/93/32 107/94/32 108/95/32
f 108/95/33 107/94/33 109/96/33
s 1
f 110/34/34 111/33/34 112/97/35
f 112/97/35 111/33/34 113/98/35
s 0
f 18/18/7 17/17/7 114/99/7
f 114/99/7 17/17/7 115/100/7
f 14/14/6 116/101/6 16/16/6
f 16/16/6 116/101/6 117/102/6
s 1
f 118/103/36 119/104/37 120/105/38
f 120/105/38 119/104/37 121/106/36
f 122/43/39 123/44/39 124/107/39
f 124/107/39 123/44/39 125/108/39
s 0
f 63/63/17 64/64/17 126/109/17
f 126/109/17 64/64/17 127/110/17
f 128/111/40 129/112/40 130/113/40
s 1
f 130/113/41 129/112/41 131/114/41
f 132/11/42 133/12/42 134/115/42
f 134/115/42 133/12/42 135/116/42
s 0
f 76/69/12 78/71/12 136/117/12
f 136/117/12 78/71/12 137/118/12
s 1
f 138/49/43 139/51/43 140/119/44
f 140/119/44 139/51/43 141/120/43
s 0
f 142/97/12 143/98/12 144/121/12
f 144/121/12 143/98/12 145/122/12
f 146/95/6 147/96/6 148/123/6
f 148/123/6 147/96/6 149/124/6
f 150/91/17 151/92/17 152/125/17
f 152/125/17 151/92/17 153/126/17
f 154/127/7 155/128/7 156/129/7
f 156/129/7 155/128/7 157/130/7
f 158/131/12 159/132/12 160/133/12
f 160/133/12 159/132/12 161/134/12
s 1
f 162/115/45 163/116/46 164/135/45
f 164/135/45 163/116/46 165/136/46
f 166/113/47 167/114/47 168/137/47
f 168/137/47 167/114/47 169/138/47
s 0
f 170/119/7 171/120/7 172/139/7
f 172/139/7 171/120/7 173/140/7
f 174/141/6 175/142/6 176/143/6
f 176/143/6 175/142/6 177/144/6
f 178/85/17 179/86/17 180/145/17
f 180/145/17 179/86/17 181/146/17
s 1
f 182/82/48 183/147/49 184/84/49
f 184/84/49 183/147/49 185/148/49
f 186/90/50 187/149/51 188/89/51
f 188/89/51 187/149/51 189/150/51
s 0
f 190/151/17 191/152/17 192/153/17
f 192/153/17 191/152/17 193/154/17
f 194/107/7 195/108/7 196/155/7
f 196/155/7 195/108/7 197/156/7
s 1
f 198/105/52 199/106/53 200/157/54
f 200/157/54 199/106/53 201/158/55
s 0
f 116/101/6 202/159/6 117/102/6
f 117/102/6 202/159/6 203/160/6
f 204/161/56 205/162/56 206/163/56
f 206/163/56 205/162/56 207/164/56
f 152/125/17 208/165/17 150/91/17
f 150/91/17 208/165/17 209/166/17
f 210/53/57 211/55/57 212/167/57
f 212/167/57 211/55/57 213/168/57
f 145/122/12 143/98/12 214/169/12
f 214/169/12 143/98/12 215/170/12
f 216/171/58 217/172/58 218/173/58
f 218/173/58 217/172/58 219/174/58
f 172/139/7 220/175/7 170/119/7
f 170/119/7 220/175/7 221/176/7
f 222/177/59 223/178/59 224/134/59
f 224/134/59 223/178/59 225/133/59
f 226/136/6 227/116/6 228/179/6
f 228/179/6 227/116/6 229/180/6
f 230/181/60 231/182/60 232/183/60
f 232/183/60 231/182/60 233/184/60
f 234/150/12 235/185/12 236/89/12
f 236/89/12 235/185/12 237/186/12
f 238/31/61 239/32/61 240/187/61
f 240/187/61 239/32/61 241/188/61
f 181/146/17 179/86/17 242/189/17
f 242/189/17 179/86/17 243/190/17
f 244/191/62 245/192/62 246/193/62
f 246/193/62 245/192/62 247/194/62
f 203/160/6 248/195/6 117/102/6
f 117/102/6 248/195/6 249/196/6
f 250/197/63 251/198/63 252/154/63
f 252/154/63 251/198/63 253/153/63
f 197/156/7 195/108/7 254/199/7
f 254/199/7 195/108/7 255/200/7
