# Blender 4.1.1
# www.blender.org
mtllib spotlight_blend.mtl
o pCylinder14_Spotlight_0.001
v 0.002530 -0.040899 0.381968
v 0.172783 0.025941 0.381968
v 0.185375 0.094419 0.381968
v 0.116358 0.103605 0.381968
v 0.265707 0.048589 0.381976
v 0.254790 0.099618 0.381976
v 0.243540 0.136678 0.381981
v 0.211769 0.158830 0.381976
v 0.166612 0.184982 0.381976
v 0.129815 0.214503 0.381975
v 0.094414 0.145022 0.381968
v 0.084305 0.226919 0.381975
v 0.048007 0.138430 0.381968
v 0.000009 0.188868 0.381968
v -0.058057 0.138453 0.381968
v 0.036605 0.248081 0.381975
v 0.000009 0.260764 0.381981
v -0.036587 0.248081 0.381975
v -0.086804 0.226924 0.381975
v -0.134667 0.145108 0.381968
v -0.152011 0.070191 0.381968
v -0.139865 0.214525 0.381975
v -0.176927 0.203275 0.381981
v -0.199079 0.171503 0.381976
v -0.227270 0.124870 0.381976
v -0.217902 0.030546 0.381968
v -0.187898 -0.040257 0.381968
v -0.262908 0.083649 0.381976
v -0.286279 0.052763 0.381981
v -0.285526 0.014040 0.381976
v -0.280923 -0.040257 0.381976
v -0.217902 -0.111062 0.381968
v -0.155101 -0.141124 0.381968
v -0.285526 -0.094554 0.381976
v -0.286279 -0.133280 0.381981
v -0.262908 -0.164164 0.381976
v -0.228042 -0.202990 0.381976
v -0.202169 -0.242436 0.381976
v -0.147030 -0.187295 0.381968
v -0.162723 -0.268309 0.381976
v -0.100858 -0.195368 0.381968
v -0.070795 -0.258168 0.381968
v 0.000009 -0.228164 0.381968
v -0.123897 -0.303175 0.381976
v -0.093012 -0.326545 0.381982
v -0.054288 -0.325792 0.381976
v 0.000009 -0.321188 0.381976
v 0.070812 -0.258168 0.381968
v 0.100876 -0.195368 0.381968
v 0.054306 -0.325792 0.381976
v 0.093030 -0.326545 0.381982
v 0.123915 -0.303175 0.381976
v 0.162741 -0.268309 0.381976
v 0.202187 -0.242436 0.381976
v 0.147048 -0.187295 0.381968
v 0.228060 -0.202990 0.381976
v 0.155119 -0.141124 0.381968
v 0.217920 -0.111062 0.381968
v 0.184784 -0.049827 0.381968
v 0.262926 -0.164164 0.381976
v 0.286297 -0.133280 0.381981
v 0.285544 -0.094554 0.381976
v 0.280158 -0.042649 0.381976
v 0.282412 0.004471 0.381976
v 0.205393 -0.007728 0.381968
vn -0.0000 -0.0000 1.0000
vn -0.0001 -0.0000 1.0000
vn -0.0004 -0.0002 1.0000
vn -0.0001 -0.0002 1.0000
vn -0.0002 -0.0000 1.0000
vn -0.0000 -0.0001 1.0000
vn -0.0001 -0.0001 1.0000
vn -0.0002 -0.0004 1.0000
vn 0.0001 -0.0002 1.0000
vn 0.0001 -0.0001 1.0000
vn 0.0002 -0.0004 1.0000
vn 0.0002 -0.0001 1.0000
vn -0.0000 -0.0002 1.0000
vn 0.0004 -0.0005 1.0000
vn 0.0001 -0.0000 1.0000
vn 0.0003 -0.0003 1.0000
vn 0.0004 -0.0002 1.0000
vn 0.0002 -0.0000 1.0000
vn 0.0002 -0.0002 1.0000
vn 0.0002 0.0002 1.0000
vn 0.0005 0.0002 1.0000
vn -0.0001 0.0001 1.0000
vn 0.0003 0.0003 1.0000
vn 0.0001 0.0001 1.0000
vn 0.0004 0.0002 1.0000
vn 0.0003 0.0002 1.0000
vn -0.0000 0.0001 1.0000
vn 0.0004 0.0004 1.0000
vn -0.0000 0.0002 1.0000
vn 0.0002 0.0005 1.0000
vn -0.0002 0.0002 1.0000
vn -0.0002 0.0005 1.0000
vn -0.0004 0.0004 1.0000
vn -0.0005 0.0002 1.0000
vt 0.501247 0.161920
vt 0.585483 0.125971
vt 0.591713 0.091179
vt 0.557566 0.087546
vt 0.631459 0.112910
vt 0.626058 0.087435
vt 0.620492 0.068881
vt 0.604772 0.058138
vt 0.582430 0.045427
vt 0.564224 0.030724
vt 0.546708 0.066663
vt 0.541707 0.024678
vt 0.523748 0.070315
vt 0.500000 0.044449
vt 0.471271 0.070174
vt 0.518106 0.013980
vt 0.500000 0.007488
vt 0.481894 0.013980
vt 0.457048 0.024643
vt 0.433366 0.066099
vt 0.424786 0.103947
vt 0.430795 0.030583
vt 0.412458 0.035932
vt 0.401498 0.051868
vt 0.387550 0.075136
vt 0.392185 0.122781
vt 0.407030 0.158594
vt 0.369917 0.095336
vt 0.358354 0.110400
vt 0.358726 0.129776
vt 0.361004 0.156836
vt 0.392185 0.192844
vt 0.423256 0.208630
vt 0.358726 0.183505
vt 0.358354 0.202447
vt 0.369917 0.217945
vt 0.387167 0.237383
vt 0.399969 0.256802
vt 0.427250 0.231083
vt 0.419485 0.269701
vt 0.450094 0.235468
vt 0.464969 0.265628
vt 0.500000 0.251564
vt 0.438695 0.286724
vt 0.453976 0.298070
vt 0.473136 0.297914
vt 0.500000 0.295832
vt 0.535031 0.265628
vt 0.549906 0.235468
vt 0.526864 0.297914
vt 0.546024 0.298070
vt 0.561305 0.286724
vt 0.580515 0.269701
vt 0.600031 0.256802
vt 0.572750 0.231084
vt 0.612833 0.237383
vt 0.576744 0.208630
vt 0.607815 0.192844
vt 0.591421 0.163458
vt 0.630083 0.217946
vt 0.641646 0.202447
vt 0.641274 0.183505
vt 0.638609 0.158052
vt 0.639724 0.134641
vt 0.601618 0.142239
s 0
usemtl Spotlight.001
f 1/1/1 2/2/1 3/3/1
f 1/1/1 3/3/1 4/4/1
f 2/2/2 5/5/2 6/6/3
f 2/2/2 6/6/2 3/3/2
f 3/3/4 6/6/4 7/7/4
f 3/3/5 7/7/5 8/8/5
f 4/4/6 3/3/6 8/8/6
f 4/4/6 8/8/6 9/9/6
f 9/9/7 10/10/8 11/11/7
f 9/9/2 11/11/2 4/4/2
f 12/12/8 13/13/6 11/11/6
f 12/12/6 11/11/6 10/10/8
f 1/1/1 4/4/1 11/11/1
f 1/1/1 11/11/1 13/13/1
f 1/1/1 13/13/1 14/14/1
f 1/1/1 14/14/1 15/15/1
f 13/13/6 12/12/6 16/16/6
f 13/13/7 16/16/7 14/14/7
f 14/14/9 16/16/9 17/17/9
f 14/14/4 17/17/4 18/18/4
f 15/15/10 14/14/10 18/18/10
f 15/15/6 18/18/6 19/19/6
f 1/1/1 15/15/1 20/20/1
f 1/1/1 20/20/1 21/21/1
f 15/15/6 19/19/6 22/22/11
f 15/15/6 22/22/6 20/20/6
f 20/20/12 22/22/12 23/23/12
f 20/20/13 23/23/14 24/24/13
f 21/21/15 20/20/15 24/24/16
f 21/21/15 24/24/16 25/25/15
f 1/1/1 21/21/1 26/26/1
f 1/1/1 26/26/1 27/27/1
f 21/21/10 25/25/10 28/28/17
f 21/21/10 28/28/10 26/26/10
s 1
f 26/26/7 28/28/16 29/29/18
s 0
f 26/26/19 29/29/19 30/30/19
f 27/27/15 26/26/15 30/30/15
f 27/27/15 30/30/15 31/31/15
f 1/1/1 27/27/1 32/32/1
f 1/1/1 32/32/1 33/33/1
f 27/27/15 31/31/15 34/34/15
f 27/27/15 34/34/15 32/32/15
f 32/32/20 34/34/20 35/35/21
s 1
f 32/32/22 35/35/18 36/36/23
s 0
f 33/33/24 32/32/24 36/36/25
f 33/33/24 36/36/26 37/37/24
f 37/37/24 38/38/23 39/39/24
f 37/37/15 39/39/15 33/33/15
f 40/40/23 41/41/27 39/39/27
s 1
f 40/40/28 39/39/24 38/38/28
s 0
f 1/1/1 33/33/1 39/39/1
f 1/1/1 39/39/1 41/41/1
f 1/1/1 41/41/1 42/42/1
f 1/1/1 42/42/1 43/43/1
f 41/41/24 40/40/24 44/44/24
f 41/41/24 44/44/24 42/42/24
f 42/42/29 44/44/29 45/45/29
f 42/42/20 45/45/30 46/46/20
f 43/43/27 42/42/27 46/46/27
f 43/43/27 46/46/27 47/47/27
f 1/1/1 43/43/1 48/48/1
f 1/1/1 48/48/1 49/49/1
f 43/43/27 47/47/27 50/50/27
f 43/43/27 50/50/27 48/48/27
f 48/48/31 50/50/31 51/51/32
f 48/48/29 51/51/29 52/52/29
f 49/49/22 48/48/22 52/52/22
f 49/49/22 52/52/22 53/53/22
f 53/53/33 54/54/33 55/55/22
f 53/53/27 55/55/27 49/49/27
f 56/56/2 57/57/2 55/55/2
f 56/56/22 55/55/22 54/54/22
f 1/1/1 49/49/1 55/55/1
f 1/1/1 55/55/1 57/57/1
f 1/1/1 57/57/1 58/58/1
f 1/1/1 58/58/1 59/59/1
f 57/57/22 56/56/22 60/60/22
f 57/57/22 60/60/22 58/58/22
f 58/58/5 60/60/5 61/61/5
f 58/58/31 61/61/34 62/62/31
f 59/59/7 58/58/7 62/62/7
f 59/59/2 62/62/2 63/63/2
f 63/63/2 64/64/2 65/65/2
f 63/63/2 65/65/2 59/59/2
f 5/5/7 2/2/7 65/65/7
f 5/5/2 65/65/2 64/64/2
f 1/1/1 59/59/1 65/65/1
f 1/1/1 65/65/1 2/2/1
